<?xml version="1.0" encoding="UTF-8" standalone="no"?>
<!DOCTYPE svg PUBLIC "-//W3C//DTD SVG 1.1//EN"
 "http://www.w3.org/Graphics/SVG/1.1/DTD/svg11.dtd">
<!-- Generated by graphviz version 2.36.0 (20140111.2315)
 -->
<!-- Title: G Pages: 1 -->
<svg width="229pt" height="65pt"
 viewBox="0.00 0.00 229.20 65.20" xmlns="http://www.w3.org/2000/svg" xmlns:xlink="http://www.w3.org/1999/xlink">
<g id="graph0" class="graph" transform="scale(1 1) rotate(0) translate(21.6 43.6)">
<title>G</title>
<polygon fill="#111111" stroke="none" points="-21.6,21.6 -21.6,-43.6 207.6,-43.6 207.6,21.6 -21.6,21.6"/>
<!-- color&#45;thief.js -->
<g id="node1" class="node"><title>color&#45;thief.js</title>
<path fill="none" stroke="#c6c5fe" d="M84.3333,-22.5C84.3333,-22.5 7.66667,-22.5 7.66667,-22.5 3.83333,-22.5 0,-18.6667 0,-14.8333 0,-14.8333 0,-7.16667 0,-7.16667 0,-3.33333 3.83333,0.5 7.66667,0.5 7.66667,0.5 84.3333,0.5 84.3333,0.5 88.1667,0.5 92,-3.33333 92,-7.16667 92,-7.16667 92,-14.8333 92,-14.8333 92,-18.6667 88.1667,-22.5 84.3333,-22.5"/>
<text text-anchor="middle" x="46" y="-7.3" font-family="Arial" font-size="14.00" fill="#c6c5fe">color&#45;thief.js</text>
</g>
<!-- core.js -->
<g id="node2" class="node"><title>core.js</title>
<path fill="none" stroke="#cfffac" d="M178.333,-22.5C178.333,-22.5 135.667,-22.5 135.667,-22.5 131.833,-22.5 128,-18.6667 128,-14.8333 128,-14.8333 128,-7.16667 128,-7.16667 128,-3.33333 131.833,0.5 135.667,0.5 135.667,0.5 178.333,0.5 178.333,0.5 182.167,0.5 186,-3.33333 186,-7.16667 186,-7.16667 186,-14.8333 186,-14.8333 186,-18.6667 182.167,-22.5 178.333,-22.5"/>
<text text-anchor="middle" x="157" y="-7.3" font-family="Arial" font-size="14.00" fill="#cfffac">core.js</text>
</g>
<!-- color&#45;thief.js&#45;&gt;core.js -->
<g id="edge1" class="edge"><title>color&#45;thief.js&#45;&gt;core.js</title>
<path fill="none" stroke="#757575" d="M92.2789,-11C100.751,-11 109.529,-11 117.763,-11"/>
<polygon fill="#757575" stroke="#757575" points="117.836,-14.5001 127.836,-11 117.836,-7.5001 117.836,-14.5001"/>
</g>
</g>
</svg>
