<?xml version="1.0" encoding="UTF-8" standalone="no"?>
<!DOCTYPE svg PUBLIC "-//W3C//DTD SVG 1.1//EN"
 "http://www.w3.org/Graphics/SVG/1.1/DTD/svg11.dtd">
<!-- Generated by graphviz version 2.40.1 (20161225.0304)
 -->
<!-- Title: %0 Pages: 1 -->
<svg width="963pt" height="1011pt"
 viewBox="0.00 0.00 963.05 1011.40" xmlns="http://www.w3.org/2000/svg" xmlns:xlink="http://www.w3.org/1999/xlink">
<g id="graph0" class="graph" transform="scale(1 1) rotate(0) translate(4 1007.4)">
<title>%0</title>
<polygon fill="#ffffff" stroke="transparent" points="-4,4 -4,-1007.4 959.0546,-1007.4 959.0546,4 -4,4"/>
<text text-anchor="middle" x="477.5273" y="-985" font-family="Roboto Condensed, sans-serif" font-size="16.00" fill="#000000">colorthief</text>
<!-- colorthief@2.3.2 -->
<g id="node1" class="node">
<title>colorthief@2.3.2</title>
<path fill="none" stroke="#000000" d="M74.368,-747.3011C74.368,-747.3011 6.5222,-747.3011 6.5222,-747.3011 3.2885,-747.3011 .0548,-744.0674 .0548,-740.8337 .0548,-740.8337 .0548,-734.3663 .0548,-734.3663 .0548,-731.1326 3.2885,-727.8989 6.5222,-727.8989 6.5222,-727.8989 74.368,-727.8989 74.368,-727.8989 77.6017,-727.8989 80.8354,-731.1326 80.8354,-734.3663 80.8354,-734.3663 80.8354,-740.8337 80.8354,-740.8337 80.8354,-744.0674 77.6017,-747.3011 74.368,-747.3011"/>
<text text-anchor="middle" x="40.4451" y="-734.3" font-family="Roboto Condensed, sans-serif" font-size="11.00" fill="#000000">colorthief@2.3.2</text>
</g>
<!-- undefined@undefined -->
<g id="node2" class="node">
<title>undefined@undefined</title>
<path fill="none" stroke="#000000" d="M214.5715,-766.3011C214.5715,-766.3011 123.308,-766.3011 123.308,-766.3011 120.0743,-766.3011 116.8406,-763.0674 116.8406,-759.8337 116.8406,-759.8337 116.8406,-753.3663 116.8406,-753.3663 116.8406,-750.1326 120.0743,-746.8989 123.308,-746.8989 123.308,-746.8989 214.5715,-746.8989 214.5715,-746.8989 217.8052,-746.8989 221.0389,-750.1326 221.0389,-753.3663 221.0389,-753.3663 221.0389,-759.8337 221.0389,-759.8337 221.0389,-763.0674 217.8052,-766.3011 214.5715,-766.3011"/>
<text text-anchor="middle" x="168.9398" y="-753.3" font-family="Roboto Condensed, sans-serif" font-size="11.00" fill="#000000">undefined@undefined</text>
</g>
<!-- colorthief@2.3.2&#45;&gt;undefined@undefined -->
<g id="edge1" class="edge">
<title>colorthief@2.3.2&#45;&gt;undefined@undefined</title>
<path fill="none" stroke="#000000" d="M81.1016,-743.6117C89.2399,-744.8151 97.9647,-746.1052 106.642,-747.3883"/>
<polygon fill="#000000" stroke="#000000" points="106.3643,-750.8852 116.7687,-748.8857 107.3882,-743.9605 106.3643,-750.8852"/>
</g>
<!-- get&#45;pixels@3.3.2 -->
<g id="node3" class="node">
<title>get&#45;pixels@3.3.2</title>
<path fill="none" stroke="#000000" d="M202.9801,-729.3011C202.9801,-729.3011 134.8994,-729.3011 134.8994,-729.3011 131.6657,-729.3011 128.4321,-726.0674 128.4321,-722.8337 128.4321,-722.8337 128.4321,-716.3663 128.4321,-716.3663 128.4321,-713.1326 131.6657,-709.8989 134.8994,-709.8989 134.8994,-709.8989 202.9801,-709.8989 202.9801,-709.8989 206.2138,-709.8989 209.4474,-713.1326 209.4474,-716.3663 209.4474,-716.3663 209.4474,-722.8337 209.4474,-722.8337 209.4474,-726.0674 206.2138,-729.3011 202.9801,-729.3011"/>
<text text-anchor="middle" x="168.9398" y="-716.3" font-family="Roboto Condensed, sans-serif" font-size="11.00" fill="#000000">get&#45;pixels@3.3.2</text>
</g>
<!-- colorthief@2.3.2&#45;&gt;get&#45;pixels@3.3.2 -->
<g id="edge2" class="edge">
<title>colorthief@2.3.2&#45;&gt;get&#45;pixels@3.3.2</title>
<path fill="none" stroke="#000000" d="M81.1016,-731.9047C92.8197,-730.2632 105.7536,-728.4513 118.0111,-726.7343"/>
<polygon fill="#000000" stroke="#000000" points="118.689,-730.1736 128.1067,-725.32 117.7178,-723.2413 118.689,-730.1736"/>
</g>
<!-- data&#45;uri&#45;to&#45;buffer@3.0.1 -->
<g id="node4" class="node">
<title>data&#45;uri&#45;to&#45;buffer@3.0.1</title>
<path fill="none" stroke="#000000" d="M502.6886,-899.3011C502.6886,-899.3011 400.4581,-899.3011 400.4581,-899.3011 397.2244,-899.3011 393.9907,-896.0674 393.9907,-892.8337 393.9907,-892.8337 393.9907,-886.3663 393.9907,-886.3663 393.9907,-883.1326 397.2244,-879.8989 400.4581,-879.8989 400.4581,-879.8989 502.6886,-879.8989 502.6886,-879.8989 505.9223,-879.8989 509.156,-883.1326 509.156,-886.3663 509.156,-886.3663 509.156,-892.8337 509.156,-892.8337 509.156,-896.0674 505.9223,-899.3011 502.6886,-899.3011"/>
<text text-anchor="middle" x="451.5734" y="-886.3" font-family="Roboto Condensed, sans-serif" font-size="11.00" fill="#000000">data&#45;uri&#45;to&#45;buffer@3.0.1</text>
</g>
<!-- get&#45;pixels@3.3.2&#45;&gt;data&#45;uri&#45;to&#45;buffer@3.0.1 -->
<g id="edge3" class="edge">
<title>get&#45;pixels@3.3.2&#45;&gt;data&#45;uri&#45;to&#45;buffer@3.0.1</title>
<path fill="none" stroke="#000000" d="M209.5792,-728.9202C213.8431,-731.2067 217.7827,-734.0541 220.9893,-737.6 267.5548,-789.0918 202.535,-846.5363 256.9893,-889.6 301.5128,-924.8102 371.4186,-913.799 414.2053,-902.0734"/>
<polygon fill="#000000" stroke="#000000" points="415.308,-905.3981 423.9458,-899.263 413.3674,-898.6725 415.308,-905.3981"/>
</g>
<!-- ndarray&#45;pack@1.2.1 -->
<g id="node5" class="node">
<title>ndarray&#45;pack@1.2.1</title>
<path fill="none" stroke="#000000" d="M348.2696,-804.3011C348.2696,-804.3011 264.9098,-804.3011 264.9098,-804.3011 261.6761,-804.3011 258.4424,-801.0674 258.4424,-797.8337 258.4424,-797.8337 258.4424,-791.3663 258.4424,-791.3663 258.4424,-788.1326 261.6761,-784.8989 264.9098,-784.8989 264.9098,-784.8989 348.2696,-784.8989 348.2696,-784.8989 351.5033,-784.8989 354.737,-788.1326 354.737,-791.3663 354.737,-791.3663 354.737,-797.8337 354.737,-797.8337 354.737,-801.0674 351.5033,-804.3011 348.2696,-804.3011"/>
<text text-anchor="middle" x="306.5897" y="-791.3" font-family="Roboto Condensed, sans-serif" font-size="11.00" fill="#000000">ndarray&#45;pack@1.2.1</text>
</g>
<!-- get&#45;pixels@3.3.2&#45;&gt;ndarray&#45;pack@1.2.1 -->
<g id="edge4" class="edge">
<title>get&#45;pixels@3.3.2&#45;&gt;ndarray&#45;pack@1.2.1</title>
<path fill="none" stroke="#000000" d="M204.4879,-729.2445C210.2356,-731.5387 215.9479,-734.3031 220.9893,-737.6 240.7315,-750.5109 237.3456,-763.5398 256.9893,-776.6 259.2361,-778.0938 261.6225,-779.4822 264.0866,-780.7696"/>
<polygon fill="#000000" stroke="#000000" points="262.6931,-783.9812 273.2391,-784.9974 265.6286,-777.6264 262.6931,-783.9812"/>
</g>
<!-- pngjs@6.0.0 -->
<g id="node6" class="node">
<title>pngjs@6.0.0</title>
<path fill="none" stroke="#000000" d="M331.087,-767.3011C331.087,-767.3011 282.0924,-767.3011 282.0924,-767.3011 278.8587,-767.3011 275.625,-764.0674 275.625,-760.8337 275.625,-760.8337 275.625,-754.3663 275.625,-754.3663 275.625,-751.1326 278.8587,-747.8989 282.0924,-747.8989 282.0924,-747.8989 331.087,-747.8989 331.087,-747.8989 334.3207,-747.8989 337.5544,-751.1326 337.5544,-754.3663 337.5544,-754.3663 337.5544,-760.8337 337.5544,-760.8337 337.5544,-764.0674 334.3207,-767.3011 331.087,-767.3011"/>
<text text-anchor="middle" x="306.5897" y="-754.3" font-family="Roboto Condensed, sans-serif" font-size="11.00" fill="#000000">pngjs@6.0.0</text>
</g>
<!-- get&#45;pixels@3.3.2&#45;&gt;pngjs@6.0.0 -->
<g id="edge5" class="edge">
<title>get&#45;pixels@3.3.2&#45;&gt;pngjs@6.0.0</title>
<path fill="none" stroke="#000000" d="M204.0308,-729.2873C222.7517,-734.4555 245.8966,-740.8449 265.459,-746.2453"/>
<polygon fill="#000000" stroke="#000000" points="264.749,-749.6802 275.3198,-748.9676 266.6118,-742.9326 264.749,-749.6802"/>
</g>
<!-- mime&#45;types@2.1.29 -->
<g id="node7" class="node">
<title>mime&#45;types@2.1.29</title>
<path fill="none" stroke="#000000" d="M645.2987,-485.3011C645.2987,-485.3011 563.1053,-485.3011 563.1053,-485.3011 559.8716,-485.3011 556.6379,-482.0674 556.6379,-478.8337 556.6379,-478.8337 556.6379,-472.3663 556.6379,-472.3663 556.6379,-469.1326 559.8716,-465.8989 563.1053,-465.8989 563.1053,-465.8989 645.2987,-465.8989 645.2987,-465.8989 648.5324,-465.8989 651.7661,-469.1326 651.7661,-472.3663 651.7661,-472.3663 651.7661,-478.8337 651.7661,-478.8337 651.7661,-482.0674 648.5324,-485.3011 645.2987,-485.3011"/>
<text text-anchor="middle" x="604.202" y="-472.3" font-family="Roboto Condensed, sans-serif" font-size="11.00" fill="#000000">mime&#45;types@2.1.29</text>
</g>
<!-- get&#45;pixels@3.3.2&#45;&gt;mime&#45;types@2.1.29 -->
<g id="edge6" class="edge">
<title>get&#45;pixels@3.3.2&#45;&gt;mime&#45;types@2.1.29</title>
<path fill="none" stroke="#000000" d="M209.5096,-723.2296C290.1744,-729.5304 466.7476,-738.4612 510.9566,-700.6 569.2857,-650.6461 509.9272,-598.8793 546.9566,-531.6 555.617,-515.8649 570.1147,-501.7499 582.3529,-491.627"/>
<polygon fill="#000000" stroke="#000000" points="584.6958,-494.2362 590.365,-485.2857 580.3516,-488.7474 584.6958,-494.2362"/>
</g>
<!-- ndarray@1.0.19 -->
<g id="node8" class="node">
<title>ndarray@1.0.19</title>
<path fill="none" stroke="#000000" d="M483.8258,-842.3011C483.8258,-842.3011 419.3209,-842.3011 419.3209,-842.3011 416.0872,-842.3011 412.8535,-839.0674 412.8535,-835.8337 412.8535,-835.8337 412.8535,-829.3663 412.8535,-829.3663 412.8535,-826.1326 416.0872,-822.8989 419.3209,-822.8989 419.3209,-822.8989 483.8258,-822.8989 483.8258,-822.8989 487.0595,-822.8989 490.2932,-826.1326 490.2932,-829.3663 490.2932,-829.3663 490.2932,-835.8337 490.2932,-835.8337 490.2932,-839.0674 487.0595,-842.3011 483.8258,-842.3011"/>
<text text-anchor="middle" x="451.5734" y="-829.3" font-family="Roboto Condensed, sans-serif" font-size="11.00" fill="#000000">ndarray@1.0.19</text>
</g>
<!-- get&#45;pixels@3.3.2&#45;&gt;ndarray@1.0.19 -->
<g id="edge7" class="edge">
<title>get&#45;pixels@3.3.2&#45;&gt;ndarray@1.0.19</title>
<path fill="none" stroke="#000000" d="M208.1011,-729.2251C212.7732,-731.4648 217.2154,-734.218 220.9893,-737.6 248.8236,-762.5438 226.4162,-792.1006 256.9893,-813.6 299.3118,-843.3617 360.2222,-844.4174 402.5796,-840.4004"/>
<polygon fill="#000000" stroke="#000000" points="403.0894,-843.8658 412.6578,-839.3165 402.3408,-836.906 403.0894,-843.8658"/>
</g>
<!-- through@2.3.8 -->
<g id="node9" class="node">
<title>through@2.3.8</title>
<path fill="none" stroke="#000000" d="M336.4719,-430.3011C336.4719,-430.3011 276.7075,-430.3011 276.7075,-430.3011 273.4738,-430.3011 270.2402,-427.0674 270.2402,-423.8337 270.2402,-423.8337 270.2402,-417.3663 270.2402,-417.3663 270.2402,-414.1326 273.4738,-410.8989 276.7075,-410.8989 276.7075,-410.8989 336.4719,-410.8989 336.4719,-410.8989 339.7056,-410.8989 342.9392,-414.1326 342.9392,-417.3663 342.9392,-417.3663 342.9392,-423.8337 342.9392,-423.8337 342.9392,-427.0674 339.7056,-430.3011 336.4719,-430.3011"/>
<text text-anchor="middle" x="306.5897" y="-417.3" font-family="Roboto Condensed, sans-serif" font-size="11.00" fill="#000000">through@2.3.8</text>
</g>
<!-- get&#45;pixels@3.3.2&#45;&gt;through@2.3.8 -->
<g id="edge9" class="edge">
<title>get&#45;pixels@3.3.2&#45;&gt;through@2.3.8</title>
<path fill="none" stroke="#000000" d="M170.8093,-709.7672C179.5135,-664.9077 217.3233,-480.0703 256.9893,-438.6 258.3902,-437.1353 259.9195,-435.7894 261.5445,-434.5526"/>
<polygon fill="#000000" stroke="#000000" points="263.5797,-437.4117 270.3155,-429.2337 259.95,-431.4262 263.5797,-437.4117"/>
</g>
<!-- parse&#45;data&#45;uri@0.2.0 -->
<g id="node10" class="node">
<title>parse&#45;data&#45;uri@0.2.0</title>
<path fill="none" stroke="#000000" d="M349.8233,-880.3011C349.8233,-880.3011 263.3561,-880.3011 263.3561,-880.3011 260.1224,-880.3011 256.8887,-877.0674 256.8887,-873.8337 256.8887,-873.8337 256.8887,-867.3663 256.8887,-867.3663 256.8887,-864.1326 260.1224,-860.8989 263.3561,-860.8989 263.3561,-860.8989 349.8233,-860.8989 349.8233,-860.8989 353.057,-860.8989 356.2907,-864.1326 356.2907,-867.3663 356.2907,-867.3663 356.2907,-873.8337 356.2907,-873.8337 356.2907,-877.0674 353.057,-880.3011 349.8233,-880.3011"/>
<text text-anchor="middle" x="306.5897" y="-867.3" font-family="Roboto Condensed, sans-serif" font-size="11.00" fill="#000000">parse&#45;data&#45;uri@0.2.0</text>
</g>
<!-- get&#45;pixels@3.3.2&#45;&gt;parse&#45;data&#45;uri@0.2.0 -->
<g id="edge10" class="edge">
<title>get&#45;pixels@3.3.2&#45;&gt;parse&#45;data&#45;uri@0.2.0</title>
<path fill="none" stroke="#000000" d="M209.5459,-729.3308C213.7624,-731.5457 217.6996,-734.2641 220.9893,-737.6 256.8121,-773.9262 223.3652,-808.2296 256.9893,-846.6 260.1712,-850.2311 264.0263,-853.3632 268.1655,-856.0521"/>
<polygon fill="#000000" stroke="#000000" points="266.5012,-859.1315 276.9359,-860.9665 269.923,-853.0248 266.5012,-859.1315"/>
</g>
<!-- node&#45;bitmap@0.0.1 -->
<g id="node11" class="node">
<title>node&#45;bitmap@0.0.1</title>
<path fill="none" stroke="#000000" d="M346.851,-393.3011C346.851,-393.3011 266.3284,-393.3011 266.3284,-393.3011 263.0947,-393.3011 259.861,-390.0674 259.861,-386.8337 259.861,-386.8337 259.861,-380.3663 259.861,-380.3663 259.861,-377.1326 263.0947,-373.8989 266.3284,-373.8989 266.3284,-373.8989 346.851,-373.8989 346.851,-373.8989 350.0847,-373.8989 353.3184,-377.1326 353.3184,-380.3663 353.3184,-380.3663 353.3184,-386.8337 353.3184,-386.8337 353.3184,-390.0674 350.0847,-393.3011 346.851,-393.3011"/>
<text text-anchor="middle" x="306.5897" y="-380.3" font-family="Roboto Condensed, sans-serif" font-size="11.00" fill="#000000">node&#45;bitmap@0.0.1</text>
</g>
<!-- get&#45;pixels@3.3.2&#45;&gt;node&#45;bitmap@0.0.1 -->
<g id="edge12" class="edge">
<title>get&#45;pixels@3.3.2&#45;&gt;node&#45;bitmap@0.0.1</title>
<path fill="none" stroke="#000000" d="M170.4231,-709.8024C177.9109,-661.5104 212.9387,-449.228 256.9893,-401.6 257.7668,-400.7593 258.5866,-399.9579 259.4428,-399.1938"/>
<polygon fill="#000000" stroke="#000000" points="261.7488,-401.8537 267.968,-393.2762 257.7573,-396.1032 261.7488,-401.8537"/>
</g>
<!-- request@2.88.2 -->
<g id="node12" class="node">
<title>request@2.88.2</title>
<path fill="none" stroke="#000000" d="M338.0158,-467.3011C338.0158,-467.3011 275.1636,-467.3011 275.1636,-467.3011 271.93,-467.3011 268.6963,-464.0674 268.6963,-460.8337 268.6963,-460.8337 268.6963,-454.3663 268.6963,-454.3663 268.6963,-451.1326 271.93,-447.8989 275.1636,-447.8989 275.1636,-447.8989 338.0158,-447.8989 338.0158,-447.8989 341.2494,-447.8989 344.4831,-451.1326 344.4831,-454.3663 344.4831,-454.3663 344.4831,-460.8337 344.4831,-460.8337 344.4831,-464.0674 341.2494,-467.3011 338.0158,-467.3011"/>
<text text-anchor="middle" x="306.5897" y="-454.3" font-family="Roboto Condensed, sans-serif" font-size="11.00" fill="#000000">request@2.88.2</text>
</g>
<!-- get&#45;pixels@3.3.2&#45;&gt;request@2.88.2 -->
<g id="edge13" class="edge">
<title>get&#45;pixels@3.3.2&#45;&gt;request@2.88.2</title>
<path fill="none" stroke="#000000" d="M174.002,-709.9646C194.2372,-671.4494 269.5253,-528.1475 296.7153,-476.3948"/>
<polygon fill="#000000" stroke="#000000" points="299.9288,-477.8035 301.4814,-467.3231 293.7319,-474.5478 299.9288,-477.8035"/>
</g>
<!-- omggif@1.0.10 -->
<g id="node13" class="node">
<title>omggif@1.0.10</title>
<path fill="none" stroke="#000000" d="M338.029,-356.3011C338.029,-356.3011 275.1504,-356.3011 275.1504,-356.3011 271.9167,-356.3011 268.683,-353.0674 268.683,-349.8337 268.683,-349.8337 268.683,-343.3663 268.683,-343.3663 268.683,-340.1326 271.9167,-336.8989 275.1504,-336.8989 275.1504,-336.8989 338.029,-336.8989 338.029,-336.8989 341.2627,-336.8989 344.4964,-340.1326 344.4964,-343.3663 344.4964,-343.3663 344.4964,-349.8337 344.4964,-349.8337 344.4964,-353.0674 341.2627,-356.3011 338.029,-356.3011"/>
<text text-anchor="middle" x="306.5897" y="-343.3" font-family="Roboto Condensed, sans-serif" font-size="11.00" fill="#000000">omggif@1.0.10</text>
</g>
<!-- get&#45;pixels@3.3.2&#45;&gt;omggif@1.0.10 -->
<g id="edge15" class="edge">
<title>get&#45;pixels@3.3.2&#45;&gt;omggif@1.0.10</title>
<path fill="none" stroke="#000000" d="M170.1312,-709.7194C176.5531,-657.9599 208.559,-418.4025 256.9893,-364.6 258.0235,-363.4511 259.1369,-362.3754 260.3146,-361.3683"/>
<polygon fill="#000000" stroke="#000000" points="262.4838,-364.1285 268.8608,-355.6677 258.5995,-358.3051 262.4838,-364.1285"/>
</g>
<!-- jpeg&#45;js@0.4.3 -->
<g id="node14" class="node">
<title>jpeg&#45;js@0.4.3</title>
<path fill="none" stroke="#000000" d="M334.1888,-319.3011C334.1888,-319.3011 278.9906,-319.3011 278.9906,-319.3011 275.757,-319.3011 272.5233,-316.0674 272.5233,-312.8337 272.5233,-312.8337 272.5233,-306.3663 272.5233,-306.3663 272.5233,-303.1326 275.757,-299.8989 278.9906,-299.8989 278.9906,-299.8989 334.1888,-299.8989 334.1888,-299.8989 337.4224,-299.8989 340.6561,-303.1326 340.6561,-306.3663 340.6561,-306.3663 340.6561,-312.8337 340.6561,-312.8337 340.6561,-316.0674 337.4224,-319.3011 334.1888,-319.3011"/>
<text text-anchor="middle" x="306.5897" y="-306.3" font-family="Roboto Condensed, sans-serif" font-size="11.00" fill="#000000">jpeg&#45;js@0.4.3</text>
</g>
<!-- get&#45;pixels@3.3.2&#45;&gt;jpeg&#45;js@0.4.3 -->
<g id="edge16" class="edge">
<title>get&#45;pixels@3.3.2&#45;&gt;jpeg&#45;js@0.4.3</title>
<path fill="none" stroke="#000000" d="M169.8748,-709.7995C175.2763,-655.0823 204.1035,-387.6784 256.9893,-327.6 258.947,-325.376 261.2018,-323.4267 263.6473,-321.7181"/>
<polygon fill="#000000" stroke="#000000" points="265.4932,-324.6967 272.5424,-316.7872 262.0994,-318.5744 265.4932,-324.6967"/>
</g>
<!-- ndarray&#45;pack@1.2.1&#45;&gt;ndarray@1.0.19 -->
<g id="edge8" class="edge">
<title>ndarray&#45;pack@1.2.1&#45;&gt;ndarray@1.0.19</title>
<path fill="none" stroke="#000000" d="M343.5503,-804.2873C362.2825,-809.197 385.22,-815.2089 405.1327,-820.428"/>
<polygon fill="#000000" stroke="#000000" points="404.3708,-823.8464 414.9315,-822.9962 406.1456,-817.0752 404.3708,-823.8464"/>
</g>
<!-- cwise&#45;compiler@1.1.3 -->
<g id="node35" class="node">
<title>cwise&#45;compiler@1.1.3</title>
<path fill="none" stroke="#000000" d="M498.0377,-805.3011C498.0377,-805.3011 405.109,-805.3011 405.109,-805.3011 401.8753,-805.3011 398.6416,-802.0674 398.6416,-798.8337 398.6416,-798.8337 398.6416,-792.3663 398.6416,-792.3663 398.6416,-789.1326 401.8753,-785.8989 405.109,-785.8989 405.109,-785.8989 498.0377,-785.8989 498.0377,-785.8989 501.2714,-785.8989 504.5051,-789.1326 504.5051,-792.3663 504.5051,-792.3663 504.5051,-798.8337 504.5051,-798.8337 504.5051,-802.0674 501.2714,-805.3011 498.0377,-805.3011"/>
<text text-anchor="middle" x="451.5734" y="-792.3" font-family="Roboto Condensed, sans-serif" font-size="11.00" fill="#000000">cwise&#45;compiler@1.1.3</text>
</g>
<!-- ndarray&#45;pack@1.2.1&#45;&gt;cwise&#45;compiler@1.1.3 -->
<g id="edge40" class="edge">
<title>ndarray&#45;pack@1.2.1&#45;&gt;cwise&#45;compiler@1.1.3</title>
<path fill="none" stroke="#000000" d="M354.8672,-794.933C365.5887,-795.0069 377.1087,-795.0864 388.3283,-795.1638"/>
<polygon fill="#000000" stroke="#000000" points="388.4921,-798.6649 398.516,-795.234 388.5404,-791.6651 388.4921,-798.6649"/>
</g>
<!-- mime&#45;db@1.46.0 -->
<g id="node30" class="node">
<title>mime&#45;db@1.46.0</title>
<path fill="none" stroke="#000000" d="M798.6158,-447.3011C798.6158,-447.3011 727.8583,-447.3011 727.8583,-447.3011 724.6246,-447.3011 721.3909,-444.0674 721.3909,-440.8337 721.3909,-440.8337 721.3909,-434.3663 721.3909,-434.3663 721.3909,-431.1326 724.6246,-427.8989 727.8583,-427.8989 727.8583,-427.8989 798.6158,-427.8989 798.6158,-427.8989 801.8495,-427.8989 805.0832,-431.1326 805.0832,-434.3663 805.0832,-434.3663 805.0832,-440.8337 805.0832,-440.8337 805.0832,-444.0674 801.8495,-447.3011 798.6158,-447.3011"/>
<text text-anchor="middle" x="763.2371" y="-434.3" font-family="Roboto Condensed, sans-serif" font-size="11.00" fill="#000000">mime&#45;db@1.46.0</text>
</g>
<!-- mime&#45;types@2.1.29&#45;&gt;mime&#45;db@1.46.0 -->
<g id="edge33" class="edge">
<title>mime&#45;types@2.1.29&#45;&gt;mime&#45;db@1.46.0</title>
<path fill="none" stroke="#000000" d="M644.7447,-465.9127C665.5739,-460.9357 691.1431,-454.8262 713.1912,-449.558"/>
<polygon fill="#000000" stroke="#000000" points="714.1312,-452.932 723.044,-447.2038 712.5044,-446.1237 714.1312,-452.932"/>
</g>
<!-- is&#45;buffer@2.0.5 -->
<g id="node15" class="node">
<title>is&#45;buffer@2.0.5</title>
<path fill="none" stroke="#000000" d="M635.7298,-879.3011C635.7298,-879.3011 572.6742,-879.3011 572.6742,-879.3011 569.4405,-879.3011 566.2068,-876.0674 566.2068,-872.8337 566.2068,-872.8337 566.2068,-866.3663 566.2068,-866.3663 566.2068,-863.1326 569.4405,-859.8989 572.6742,-859.8989 572.6742,-859.8989 635.7298,-859.8989 635.7298,-859.8989 638.9635,-859.8989 642.1972,-863.1326 642.1972,-866.3663 642.1972,-866.3663 642.1972,-872.8337 642.1972,-872.8337 642.1972,-876.0674 638.9635,-879.3011 635.7298,-879.3011"/>
<text text-anchor="middle" x="604.202" y="-866.3" font-family="Roboto Condensed, sans-serif" font-size="11.00" fill="#000000">is&#45;buffer@2.0.5</text>
</g>
<!-- ndarray@1.0.19&#45;&gt;is&#45;buffer@2.0.5 -->
<g id="edge17" class="edge">
<title>ndarray@1.0.19&#45;&gt;is&#45;buffer@2.0.5</title>
<path fill="none" stroke="#000000" d="M490.4829,-842.0324C510.5354,-846.8935 535.1656,-852.8643 556.3704,-858.0047"/>
<polygon fill="#000000" stroke="#000000" points="555.6124,-861.4223 566.1555,-860.3768 557.2616,-854.6193 555.6124,-861.4223"/>
</g>
<!-- iota&#45;array@1.0.0 -->
<g id="node36" class="node">
<title>iota&#45;array@1.0.0</title>
<path fill="none" stroke="#000000" d="M638.1128,-842.3011C638.1128,-842.3011 570.2912,-842.3011 570.2912,-842.3011 567.0575,-842.3011 563.8238,-839.0674 563.8238,-835.8337 563.8238,-835.8337 563.8238,-829.3663 563.8238,-829.3663 563.8238,-826.1326 567.0575,-822.8989 570.2912,-822.8989 570.2912,-822.8989 638.1128,-822.8989 638.1128,-822.8989 641.3465,-822.8989 644.5802,-826.1326 644.5802,-829.3663 644.5802,-829.3663 644.5802,-835.8337 644.5802,-835.8337 644.5802,-839.0674 641.3465,-842.3011 638.1128,-842.3011"/>
<text text-anchor="middle" x="604.202" y="-829.3" font-family="Roboto Condensed, sans-serif" font-size="11.00" fill="#000000">iota&#45;array@1.0.0</text>
</g>
<!-- ndarray@1.0.19&#45;&gt;iota&#45;array@1.0.0 -->
<g id="edge41" class="edge">
<title>ndarray@1.0.19&#45;&gt;iota&#45;array@1.0.0</title>
<path fill="none" stroke="#000000" d="M490.4829,-832.6C509.674,-832.6 533.0578,-832.6 553.6191,-832.6"/>
<polygon fill="#000000" stroke="#000000" points="553.7651,-836.1001 563.7651,-832.6 553.7651,-829.1001 553.7651,-836.1001"/>
</g>
<!-- parse&#45;data&#45;uri@0.2.0&#45;&gt;data&#45;uri&#45;to&#45;buffer@3.0.1 -->
<g id="edge11" class="edge">
<title>parse&#45;data&#45;uri@0.2.0&#45;&gt;data&#45;uri&#45;to&#45;buffer@3.0.1</title>
<path fill="none" stroke="#000000" d="M356.4848,-877.1387C365.3274,-878.2975 374.6684,-879.5217 383.9045,-880.7321"/>
<polygon fill="#000000" stroke="#000000" points="383.487,-884.2072 393.857,-882.0363 384.3966,-877.2665 383.487,-884.2072"/>
</g>
<!-- request@2.88.2&#45;&gt;mime&#45;types@2.1.29 -->
<g id="edge14" class="edge">
<title>request@2.88.2&#45;&gt;mime&#45;types@2.1.29</title>
<path fill="none" stroke="#000000" d="M309.5021,-467.5182C317.6193,-493.107 343.1849,-561.1933 392.1901,-587.6 438.6582,-612.6396 464.6265,-612.894 510.9566,-587.6 536.9265,-573.4217 528.263,-554.5348 546.9566,-531.6 558.6611,-517.24 573.6904,-502.657 585.4123,-491.9737"/>
<polygon fill="#000000" stroke="#000000" points="587.8039,-494.5303 592.9176,-485.2512 583.1335,-489.3161 587.8039,-494.5303"/>
</g>
<!-- isstream@0.1.2 -->
<g id="node16" class="node">
<title>isstream@0.1.2</title>
<path fill="none" stroke="#000000" d="M482.3904,-354.3011C482.3904,-354.3011 420.7563,-354.3011 420.7563,-354.3011 417.5226,-354.3011 414.2889,-351.0674 414.2889,-347.8337 414.2889,-347.8337 414.2889,-341.3663 414.2889,-341.3663 414.2889,-338.1326 417.5226,-334.8989 420.7563,-334.8989 420.7563,-334.8989 482.3904,-334.8989 482.3904,-334.8989 485.6241,-334.8989 488.8578,-338.1326 488.8578,-341.3663 488.8578,-341.3663 488.8578,-347.8337 488.8578,-347.8337 488.8578,-351.0674 485.6241,-354.3011 482.3904,-354.3011"/>
<text text-anchor="middle" x="451.5734" y="-341.3" font-family="Roboto Condensed, sans-serif" font-size="11.00" fill="#000000">isstream@0.1.2</text>
</g>
<!-- request@2.88.2&#45;&gt;isstream@0.1.2 -->
<g id="edge18" class="edge">
<title>request@2.88.2&#45;&gt;isstream@0.1.2</title>
<path fill="none" stroke="#000000" d="M343.6819,-447.9005C348.2224,-445.6694 352.5397,-442.9384 356.1901,-439.6 384.0677,-414.1049 363.6368,-387.336 392.1901,-362.6 395.9127,-359.3751 400.1996,-356.728 404.7306,-354.5551"/>
<polygon fill="#000000" stroke="#000000" points="406.2931,-357.6995 414.2711,-350.7279 403.6869,-351.2027 406.2931,-357.6995"/>
</g>
<!-- json&#45;stringify&#45;safe@5.0.1 -->
<g id="node17" class="node">
<title>json&#45;stringify&#45;safe@5.0.1</title>
<path fill="none" stroke="#000000" d="M504.3727,-317.3011C504.3727,-317.3011 398.774,-317.3011 398.774,-317.3011 395.5403,-317.3011 392.3066,-314.0674 392.3066,-310.8337 392.3066,-310.8337 392.3066,-304.3663 392.3066,-304.3663 392.3066,-301.1326 395.5403,-297.8989 398.774,-297.8989 398.774,-297.8989 504.3727,-297.8989 504.3727,-297.8989 507.6064,-297.8989 510.8401,-301.1326 510.8401,-304.3663 510.8401,-304.3663 510.8401,-310.8337 510.8401,-310.8337 510.8401,-314.0674 507.6064,-317.3011 504.3727,-317.3011"/>
<text text-anchor="middle" x="451.5734" y="-304.3" font-family="Roboto Condensed, sans-serif" font-size="11.00" fill="#000000">json&#45;stringify&#45;safe@5.0.1</text>
</g>
<!-- request@2.88.2&#45;&gt;json&#45;stringify&#45;safe@5.0.1 -->
<g id="edge19" class="edge">
<title>request@2.88.2&#45;&gt;json&#45;stringify&#45;safe@5.0.1</title>
<path fill="none" stroke="#000000" d="M344.6021,-448.0772C348.8899,-445.8231 352.8936,-443.0387 356.1901,-439.6 392.9589,-401.2442 354.4028,-362.9528 392.1901,-325.6 393.1382,-324.6628 394.1334,-323.7741 395.1689,-322.9315"/>
<polygon fill="#000000" stroke="#000000" points="397.3077,-325.7158 403.7853,-317.3318 393.4932,-319.8464 397.3077,-325.7158"/>
</g>
<!-- har&#45;validator@5.1.5 -->
<g id="node18" class="node">
<title>har&#45;validator@5.1.5</title>
<path fill="none" stroke="#000000" d="M492.541,-167.3011C492.541,-167.3011 410.6057,-167.3011 410.6057,-167.3011 407.372,-167.3011 404.1383,-164.0674 404.1383,-160.8337 404.1383,-160.8337 404.1383,-154.3663 404.1383,-154.3663 404.1383,-151.1326 407.372,-147.8989 410.6057,-147.8989 410.6057,-147.8989 492.541,-147.8989 492.541,-147.8989 495.7747,-147.8989 499.0084,-151.1326 499.0084,-154.3663 499.0084,-154.3663 499.0084,-160.8337 499.0084,-160.8337 499.0084,-164.0674 495.7747,-167.3011 492.541,-167.3011"/>
<text text-anchor="middle" x="451.5734" y="-154.3" font-family="Roboto Condensed, sans-serif" font-size="11.00" fill="#000000">har&#45;validator@5.1.5</text>
</g>
<!-- request@2.88.2&#45;&gt;har&#45;validator@5.1.5 -->
<g id="edge20" class="edge">
<title>request@2.88.2&#45;&gt;har&#45;validator@5.1.5</title>
<path fill="none" stroke="#000000" d="M344.6968,-448.8547C349.0799,-446.4755 353.0831,-443.4493 356.1901,-439.6 430.5685,-347.4536 315.3598,-265.7122 392.1901,-175.6 393.2167,-174.396 394.3209,-173.2708 395.4905,-172.2195"/>
<polygon fill="#000000" stroke="#000000" points="397.8057,-174.8733 404.0285,-166.2985 393.8166,-169.1211 397.8057,-174.8733"/>
</g>
<!-- tunnel&#45;agent@0.6.0 -->
<g id="node19" class="node">
<title>tunnel&#45;agent@0.6.0</title>
<path fill="none" stroke="#000000" d="M491.7172,-391.3011C491.7172,-391.3011 411.4295,-391.3011 411.4295,-391.3011 408.1958,-391.3011 404.9621,-388.0674 404.9621,-384.8337 404.9621,-384.8337 404.9621,-378.3663 404.9621,-378.3663 404.9621,-375.1326 408.1958,-371.8989 411.4295,-371.8989 411.4295,-371.8989 491.7172,-371.8989 491.7172,-371.8989 494.9509,-371.8989 498.1846,-375.1326 498.1846,-378.3663 498.1846,-378.3663 498.1846,-384.8337 498.1846,-384.8337 498.1846,-388.0674 494.9509,-391.3011 491.7172,-391.3011"/>
<text text-anchor="middle" x="451.5734" y="-378.3" font-family="Roboto Condensed, sans-serif" font-size="11.00" fill="#000000">tunnel&#45;agent@0.6.0</text>
</g>
<!-- request@2.88.2&#45;&gt;tunnel&#45;agent@0.6.0 -->
<g id="edge21" class="edge">
<title>request@2.88.2&#45;&gt;tunnel&#45;agent@0.6.0</title>
<path fill="none" stroke="#000000" d="M339.233,-447.9204C345.0783,-445.589 350.9656,-442.821 356.1901,-439.6 374.9238,-428.0503 373.6671,-417.4846 392.1901,-405.6 398.367,-401.6368 405.306,-398.1219 412.2036,-395.0876"/>
<polygon fill="#000000" stroke="#000000" points="413.5976,-398.2987 421.5082,-391.2508 410.929,-391.8273 413.5976,-398.2987"/>
</g>
<!-- oauth&#45;sign@0.9.0 -->
<g id="node20" class="node">
<title>oauth&#45;sign@0.9.0</title>
<path fill="none" stroke="#000000" d="M487.1735,-130.3011C487.1735,-130.3011 415.9732,-130.3011 415.9732,-130.3011 412.7395,-130.3011 409.5058,-127.0674 409.5058,-123.8337 409.5058,-123.8337 409.5058,-117.3663 409.5058,-117.3663 409.5058,-114.1326 412.7395,-110.8989 415.9732,-110.8989 415.9732,-110.8989 487.1735,-110.8989 487.1735,-110.8989 490.4072,-110.8989 493.6409,-114.1326 493.6409,-117.3663 493.6409,-117.3663 493.6409,-123.8337 493.6409,-123.8337 493.6409,-127.0674 490.4072,-130.3011 487.1735,-130.3011"/>
<text text-anchor="middle" x="451.5734" y="-117.3" font-family="Roboto Condensed, sans-serif" font-size="11.00" fill="#000000">oauth&#45;sign@0.9.0</text>
</g>
<!-- request@2.88.2&#45;&gt;oauth&#45;sign@0.9.0 -->
<g id="edge22" class="edge">
<title>request@2.88.2&#45;&gt;oauth&#45;sign@0.9.0</title>
<path fill="none" stroke="#000000" d="M344.7563,-448.9023C349.1301,-446.5157 353.1149,-443.4748 356.1901,-439.6 439.9466,-334.0664 305.625,-241.8423 392.1901,-138.6 394.5099,-135.8333 397.2401,-133.4825 400.2335,-131.4861"/>
<polygon fill="#000000" stroke="#000000" points="402.0227,-134.4997 409.2442,-126.7473 398.7644,-128.3043 402.0227,-134.4997"/>
</g>
<!-- performance&#45;now@2.1.0 -->
<g id="node21" class="node">
<title>performance&#45;now@2.1.0</title>
<path fill="none" stroke="#000000" d="M503.4133,-93.3011C503.4133,-93.3011 399.7334,-93.3011 399.7334,-93.3011 396.4997,-93.3011 393.266,-90.0674 393.266,-86.8337 393.266,-86.8337 393.266,-80.3663 393.266,-80.3663 393.266,-77.1326 396.4997,-73.8989 399.7334,-73.8989 399.7334,-73.8989 503.4133,-73.8989 503.4133,-73.8989 506.647,-73.8989 509.8807,-77.1326 509.8807,-80.3663 509.8807,-80.3663 509.8807,-86.8337 509.8807,-86.8337 509.8807,-90.0674 506.647,-93.3011 503.4133,-93.3011"/>
<text text-anchor="middle" x="451.5734" y="-80.3" font-family="Roboto Condensed, sans-serif" font-size="11.00" fill="#000000">performance&#45;now@2.1.0</text>
</g>
<!-- request@2.88.2&#45;&gt;performance&#45;now@2.1.0 -->
<g id="edge23" class="edge">
<title>request@2.88.2&#45;&gt;performance&#45;now@2.1.0</title>
<path fill="none" stroke="#000000" d="M344.3164,-449.2024C348.8744,-446.7719 353.0271,-443.6388 356.1901,-439.6 449.3381,-320.6624 295.8763,-217.9889 392.1901,-101.6 392.7911,-100.8738 393.4203,-100.1762 394.0752,-99.5061"/>
<polygon fill="#000000" stroke="#000000" points="396.2439,-102.2533 401.9538,-93.3287 391.9247,-96.7447 396.2439,-102.2533"/>
</g>
<!-- caseless@0.12.0 -->
<g id="node22" class="node">
<title>caseless@0.12.0</title>
<path fill="none" stroke="#000000" d="M484.6581,-56.3011C484.6581,-56.3011 418.4886,-56.3011 418.4886,-56.3011 415.2549,-56.3011 412.0212,-53.0674 412.0212,-49.8337 412.0212,-49.8337 412.0212,-43.3663 412.0212,-43.3663 412.0212,-40.1326 415.2549,-36.8989 418.4886,-36.8989 418.4886,-36.8989 484.6581,-36.8989 484.6581,-36.8989 487.8918,-36.8989 491.1255,-40.1326 491.1255,-43.3663 491.1255,-43.3663 491.1255,-49.8337 491.1255,-49.8337 491.1255,-53.0674 487.8918,-56.3011 484.6581,-56.3011"/>
<text text-anchor="middle" x="451.5734" y="-43.3" font-family="Roboto Condensed, sans-serif" font-size="11.00" fill="#000000">caseless@0.12.0</text>
</g>
<!-- request@2.88.2&#45;&gt;caseless@0.12.0 -->
<g id="edge24" class="edge">
<title>request@2.88.2&#45;&gt;caseless@0.12.0</title>
<path fill="none" stroke="#000000" d="M344.3549,-449.2324C348.9073,-446.7976 353.0481,-443.6552 356.1901,-439.6 458.739,-307.2463 286.1179,-194.1471 392.1901,-64.6 395.1098,-61.0341 398.7121,-58.1573 402.6873,-55.839"/>
<polygon fill="#000000" stroke="#000000" points="404.251,-58.9721 411.865,-51.6048 401.3185,-52.616 404.251,-58.9721"/>
</g>
<!-- aws4@1.11.0 -->
<g id="node23" class="node">
<title>aws4@1.11.0</title>
<path fill="none" stroke="#000000" d="M478.338,-19.3011C478.338,-19.3011 424.8087,-19.3011 424.8087,-19.3011 421.575,-19.3011 418.3413,-16.0674 418.3413,-12.8337 418.3413,-12.8337 418.3413,-6.3663 418.3413,-6.3663 418.3413,-3.1326 421.575,.1011 424.8087,.1011 424.8087,.1011 478.338,.1011 478.338,.1011 481.5717,.1011 484.8054,-3.1326 484.8054,-6.3663 484.8054,-6.3663 484.8054,-12.8337 484.8054,-12.8337 484.8054,-16.0674 481.5717,-19.3011 478.338,-19.3011"/>
<text text-anchor="middle" x="451.5734" y="-6.3" font-family="Roboto Condensed, sans-serif" font-size="11.00" fill="#000000">aws4@1.11.0</text>
</g>
<!-- request@2.88.2&#45;&gt;aws4@1.11.0 -->
<g id="edge25" class="edge">
<title>request@2.88.2&#45;&gt;aws4@1.11.0</title>
<path fill="none" stroke="#000000" d="M344.3867,-449.2569C348.9344,-446.8185 353.0655,-443.6686 356.1901,-439.6 412.1684,-366.7107 334.2713,-98.957 392.1901,-27.6 396.5235,-22.2612 402.3875,-18.4657 408.7496,-15.7758"/>
<polygon fill="#000000" stroke="#000000" points="409.9361,-19.0695 418.3068,-12.5748 407.7129,-12.4319 409.9361,-19.0695"/>
</g>
<!-- safe&#45;buffer@5.2.1 -->
<g id="node24" class="node">
<title>safe&#45;buffer@5.2.1</title>
<path fill="none" stroke="#000000" d="M641.1014,-410.3011C641.1014,-410.3011 567.3026,-410.3011 567.3026,-410.3011 564.0689,-410.3011 560.8352,-407.0674 560.8352,-403.8337 560.8352,-403.8337 560.8352,-397.3663 560.8352,-397.3663 560.8352,-394.1326 564.0689,-390.8989 567.3026,-390.8989 567.3026,-390.8989 641.1014,-390.8989 641.1014,-390.8989 644.3351,-390.8989 647.5688,-394.1326 647.5688,-397.3663 647.5688,-397.3663 647.5688,-403.8337 647.5688,-403.8337 647.5688,-407.0674 644.3351,-410.3011 641.1014,-410.3011"/>
<text text-anchor="middle" x="604.202" y="-397.3" font-family="Roboto Condensed, sans-serif" font-size="11.00" fill="#000000">safe&#45;buffer@5.2.1</text>
</g>
<!-- request@2.88.2&#45;&gt;safe&#45;buffer@5.2.1 -->
<g id="edge26" class="edge">
<title>request@2.88.2&#45;&gt;safe&#45;buffer@5.2.1</title>
<path fill="none" stroke="#000000" d="M344.4441,-448.8469C359.3016,-445.5034 376.518,-441.7424 392.1901,-438.6 445.9901,-427.8125 507.7705,-416.9069 550.707,-409.5627"/>
<polygon fill="#000000" stroke="#000000" points="551.3866,-412.9974 560.6564,-407.8669 550.2105,-406.0969 551.3866,-412.9974"/>
</g>
<!-- extend@3.0.2 -->
<g id="node25" class="node">
<title>extend@3.0.2</title>
<path fill="none" stroke="#000000" d="M479.0601,-691.3011C479.0601,-691.3011 424.0866,-691.3011 424.0866,-691.3011 420.8529,-691.3011 417.6192,-688.0674 417.6192,-684.8337 417.6192,-684.8337 417.6192,-678.3663 417.6192,-678.3663 417.6192,-675.1326 420.8529,-671.8989 424.0866,-671.8989 424.0866,-671.8989 479.0601,-671.8989 479.0601,-671.8989 482.2938,-671.8989 485.5275,-675.1326 485.5275,-678.3663 485.5275,-678.3663 485.5275,-684.8337 485.5275,-684.8337 485.5275,-688.0674 482.2938,-691.3011 479.0601,-691.3011"/>
<text text-anchor="middle" x="451.5734" y="-678.3" font-family="Roboto Condensed, sans-serif" font-size="11.00" fill="#000000">extend@3.0.2</text>
</g>
<!-- request@2.88.2&#45;&gt;extend@3.0.2 -->
<g id="edge28" class="edge">
<title>request@2.88.2&#45;&gt;extend@3.0.2</title>
<path fill="none" stroke="#000000" d="M307.7229,-467.4595C312.0388,-500.4023 330.4561,-607.7229 392.1901,-663.6 396.7439,-667.7218 402.2149,-670.9004 407.9686,-673.3516"/>
<polygon fill="#000000" stroke="#000000" points="407.2118,-676.7962 417.8066,-676.828 409.5441,-670.1962 407.2118,-676.7962"/>
</g>
<!-- uuid@8.3.2 -->
<g id="node26" class="node">
<title>uuid@8.3.2</title>
<path fill="none" stroke="#000000" d="M473.7936,-654.3011C473.7936,-654.3011 429.3531,-654.3011 429.3531,-654.3011 426.1194,-654.3011 422.8857,-651.0674 422.8857,-647.8337 422.8857,-647.8337 422.8857,-641.3663 422.8857,-641.3663 422.8857,-638.1326 426.1194,-634.8989 429.3531,-634.8989 429.3531,-634.8989 473.7936,-634.8989 473.7936,-634.8989 477.0273,-634.8989 480.261,-638.1326 480.261,-641.3663 480.261,-641.3663 480.261,-647.8337 480.261,-647.8337 480.261,-651.0674 477.0273,-654.3011 473.7936,-654.3011"/>
<text text-anchor="middle" x="451.5734" y="-641.3" font-family="Roboto Condensed, sans-serif" font-size="11.00" fill="#000000">uuid@8.3.2</text>
</g>
<!-- request@2.88.2&#45;&gt;uuid@8.3.2 -->
<g id="edge29" class="edge">
<title>request@2.88.2&#45;&gt;uuid@8.3.2</title>
<path fill="none" stroke="#000000" d="M309.1779,-467.5319C316.9498,-495.4963 342.6624,-575.7698 392.1901,-620.6 398.2186,-626.0567 405.6483,-630.3543 413.1869,-633.7097"/>
<polygon fill="#000000" stroke="#000000" points="412.1103,-637.0477 422.6967,-637.4723 414.6857,-630.5387 412.1103,-637.0477"/>
</g>
<!-- combined&#45;stream@1.0.8 -->
<g id="node27" class="node">
<title>combined&#45;stream@1.0.8</title>
<path fill="none" stroke="#000000" d="M655.2265,-280.3011C655.2265,-280.3011 553.1775,-280.3011 553.1775,-280.3011 549.9438,-280.3011 546.7101,-277.0674 546.7101,-273.8337 546.7101,-273.8337 546.7101,-267.3663 546.7101,-267.3663 546.7101,-264.1326 549.9438,-260.8989 553.1775,-260.8989 553.1775,-260.8989 655.2265,-260.8989 655.2265,-260.8989 658.4602,-260.8989 661.6939,-264.1326 661.6939,-267.3663 661.6939,-267.3663 661.6939,-273.8337 661.6939,-273.8337 661.6939,-277.0674 658.4602,-280.3011 655.2265,-280.3011"/>
<text text-anchor="middle" x="604.202" y="-267.3" font-family="Roboto Condensed, sans-serif" font-size="11.00" fill="#000000">combined&#45;stream@1.0.8</text>
</g>
<!-- request@2.88.2&#45;&gt;combined&#45;stream@1.0.8 -->
<g id="edge30" class="edge">
<title>request@2.88.2&#45;&gt;combined&#45;stream@1.0.8</title>
<path fill="none" stroke="#000000" d="M344.506,-448.6964C348.9186,-446.3418 352.9809,-443.3645 356.1901,-439.6 411.3814,-374.8586 326.6206,-305.8049 392.1901,-251.6 416.3225,-231.6502 501.3994,-246.4358 556.1658,-258.7132"/>
<polygon fill="#000000" stroke="#000000" points="555.4888,-262.1486 566.0176,-260.9675 557.0503,-255.325 555.4888,-262.1486"/>
</g>
<!-- http&#45;signature@1.3.5 -->
<g id="node28" class="node">
<title>http&#45;signature@1.3.5</title>
<path fill="none" stroke="#000000" d="M494.8312,-767.3011C494.8312,-767.3011 408.3155,-767.3011 408.3155,-767.3011 405.0818,-767.3011 401.8481,-764.0674 401.8481,-760.8337 401.8481,-760.8337 401.8481,-754.3663 401.8481,-754.3663 401.8481,-751.1326 405.0818,-747.8989 408.3155,-747.8989 408.3155,-747.8989 494.8312,-747.8989 494.8312,-747.8989 498.0649,-747.8989 501.2986,-751.1326 501.2986,-754.3663 501.2986,-754.3663 501.2986,-760.8337 501.2986,-760.8337 501.2986,-764.0674 498.0649,-767.3011 494.8312,-767.3011"/>
<text text-anchor="middle" x="451.5734" y="-754.3" font-family="Roboto Condensed, sans-serif" font-size="11.00" fill="#000000">http&#45;signature@1.3.5</text>
</g>
<!-- request@2.88.2&#45;&gt;http&#45;signature@1.3.5 -->
<g id="edge31" class="edge">
<title>request@2.88.2&#45;&gt;http&#45;signature@1.3.5</title>
<path fill="none" stroke="#000000" d="M308.3741,-467.5952C314.8996,-502.2237 339.8688,-619.3801 392.1901,-700.6 402.2508,-716.2175 417.407,-730.6723 429.8891,-741.1179"/>
<polygon fill="#000000" stroke="#000000" points="428.0289,-744.1144 438.0079,-747.6739 432.4267,-738.6683 428.0289,-744.1144"/>
</g>
<!-- forever&#45;agent@0.6.1 -->
<g id="node29" class="node">
<title>forever&#45;agent@0.6.1</title>
<path fill="none" stroke="#000000" d="M493.9727,-578.3011C493.9727,-578.3011 409.174,-578.3011 409.174,-578.3011 405.9403,-578.3011 402.7067,-575.0674 402.7067,-571.8337 402.7067,-571.8337 402.7067,-565.3663 402.7067,-565.3663 402.7067,-562.1326 405.9403,-558.8989 409.174,-558.8989 409.174,-558.8989 493.9727,-558.8989 493.9727,-558.8989 497.2064,-558.8989 500.44,-562.1326 500.44,-565.3663 500.44,-565.3663 500.44,-571.8337 500.44,-571.8337 500.44,-575.0674 497.2064,-578.3011 493.9727,-578.3011"/>
<text text-anchor="middle" x="451.5734" y="-565.3" font-family="Roboto Condensed, sans-serif" font-size="11.00" fill="#000000">forever&#45;agent@0.6.1</text>
</g>
<!-- request@2.88.2&#45;&gt;forever&#45;agent@0.6.1 -->
<g id="edge32" class="edge">
<title>request@2.88.2&#45;&gt;forever&#45;agent@0.6.1</title>
<path fill="none" stroke="#000000" d="M312.8757,-467.3398C325.5668,-486.2288 356.1338,-527.9664 392.1901,-550.6 394.6707,-552.1572 397.2942,-553.5866 400.0023,-554.8979"/>
<polygon fill="#000000" stroke="#000000" points="398.8783,-558.2231 409.4505,-558.9148 401.6171,-551.7812 398.8783,-558.2231"/>
</g>
<!-- aws&#45;sign2@0.7.0 -->
<g id="node31" class="node">
<title>aws&#45;sign2@0.7.0</title>
<path fill="none" stroke="#000000" d="M486.3347,-541.3011C486.3347,-541.3011 416.812,-541.3011 416.812,-541.3011 413.5783,-541.3011 410.3446,-538.0674 410.3446,-534.8337 410.3446,-534.8337 410.3446,-528.3663 410.3446,-528.3663 410.3446,-525.1326 413.5783,-521.8989 416.812,-521.8989 416.812,-521.8989 486.3347,-521.8989 486.3347,-521.8989 489.5684,-521.8989 492.8021,-525.1326 492.8021,-528.3663 492.8021,-528.3663 492.8021,-534.8337 492.8021,-534.8337 492.8021,-538.0674 489.5684,-541.3011 486.3347,-541.3011"/>
<text text-anchor="middle" x="451.5734" y="-528.3" font-family="Roboto Condensed, sans-serif" font-size="11.00" fill="#000000">aws&#45;sign2@0.7.0</text>
</g>
<!-- request@2.88.2&#45;&gt;aws&#45;sign2@0.7.0 -->
<g id="edge34" class="edge">
<title>request@2.88.2&#45;&gt;aws&#45;sign2@0.7.0</title>
<path fill="none" stroke="#000000" d="M318.9706,-467.3439C335.0469,-479.5978 364.3521,-500.6025 392.1901,-513.6 396.0336,-515.3945 400.0996,-517.0629 404.2287,-518.6013"/>
<polygon fill="#000000" stroke="#000000" points="403.3082,-521.9865 413.903,-521.9538 405.6003,-515.3724 403.3082,-521.9865"/>
</g>
<!-- form&#45;data@4.0.0 -->
<g id="node32" class="node">
<title>form&#45;data@4.0.0</title>
<path fill="none" stroke="#000000" d="M486.1027,-280.3011C486.1027,-280.3011 417.044,-280.3011 417.044,-280.3011 413.8103,-280.3011 410.5766,-277.0674 410.5766,-273.8337 410.5766,-273.8337 410.5766,-267.3663 410.5766,-267.3663 410.5766,-264.1326 413.8103,-260.8989 417.044,-260.8989 417.044,-260.8989 486.1027,-260.8989 486.1027,-260.8989 489.3364,-260.8989 492.5701,-264.1326 492.5701,-267.3663 492.5701,-267.3663 492.5701,-273.8337 492.5701,-273.8337 492.5701,-277.0674 489.3364,-280.3011 486.1027,-280.3011"/>
<text text-anchor="middle" x="451.5734" y="-267.3" font-family="Roboto Condensed, sans-serif" font-size="11.00" fill="#000000">form&#45;data@4.0.0</text>
</g>
<!-- request@2.88.2&#45;&gt;form&#45;data@4.0.0 -->
<g id="edge35" class="edge">
<title>request@2.88.2&#45;&gt;form&#45;data@4.0.0</title>
<path fill="none" stroke="#000000" d="M344.3498,-448.5602C348.7867,-446.2267 352.8973,-443.2916 356.1901,-439.6 402.1143,-388.1134 344.8974,-338.8325 392.1901,-288.6 394.9362,-285.6832 398.1376,-283.2339 401.604,-281.178"/>
<polygon fill="#000000" stroke="#000000" points="403.1554,-284.3157 410.6582,-276.8352 400.1281,-278.0042 403.1554,-284.3157"/>
</g>
<!-- tough&#45;cookie@4.0.0 -->
<g id="node33" class="node">
<title>tough&#45;cookie@4.0.0</title>
<path fill="none" stroke="#000000" d="M493.2775,-204.3011C493.2775,-204.3011 409.8692,-204.3011 409.8692,-204.3011 406.6355,-204.3011 403.4018,-201.0674 403.4018,-197.8337 403.4018,-197.8337 403.4018,-191.3663 403.4018,-191.3663 403.4018,-188.1326 406.6355,-184.8989 409.8692,-184.8989 409.8692,-184.8989 493.2775,-184.8989 493.2775,-184.8989 496.5112,-184.8989 499.7449,-188.1326 499.7449,-191.3663 499.7449,-191.3663 499.7449,-197.8337 499.7449,-197.8337 499.7449,-201.0674 496.5112,-204.3011 493.2775,-204.3011"/>
<text text-anchor="middle" x="451.5734" y="-191.3" font-family="Roboto Condensed, sans-serif" font-size="11.00" fill="#000000">tough&#45;cookie@4.0.0</text>
</g>
<!-- request@2.88.2&#45;&gt;tough&#45;cookie@4.0.0 -->
<g id="edge38" class="edge">
<title>request@2.88.2&#45;&gt;tough&#45;cookie@4.0.0</title>
<path fill="none" stroke="#000000" d="M344.604,-448.7788C349.0015,-446.4114 353.0334,-443.4086 356.1901,-439.6 419.6955,-362.9797 330.0726,-296.3497 392.1901,-218.6 395.0792,-214.9838 398.5988,-211.9091 402.4674,-209.2953"/>
<polygon fill="#000000" stroke="#000000" points="404.3855,-212.2321 411.3848,-204.2785 400.9532,-206.1313 404.3855,-212.2321"/>
</g>
<!-- qs@6.9.6 -->
<g id="node34" class="node">
<title>qs@6.9.6</title>
<path fill="none" stroke="#000000" d="M469.0139,-504.3011C469.0139,-504.3011 434.1328,-504.3011 434.1328,-504.3011 430.8991,-504.3011 427.6655,-501.0674 427.6655,-497.8337 427.6655,-497.8337 427.6655,-491.3663 427.6655,-491.3663 427.6655,-488.1326 430.8991,-484.8989 434.1328,-484.8989 434.1328,-484.8989 469.0139,-484.8989 469.0139,-484.8989 472.2476,-484.8989 475.4812,-488.1326 475.4812,-491.3663 475.4812,-491.3663 475.4812,-497.8337 475.4812,-497.8337 475.4812,-501.0674 472.2476,-504.3011 469.0139,-504.3011"/>
<text text-anchor="middle" x="451.5734" y="-491.3" font-family="Roboto Condensed, sans-serif" font-size="11.00" fill="#000000">qs@6.9.6</text>
</g>
<!-- request@2.88.2&#45;&gt;qs@6.9.6 -->
<g id="edge39" class="edge">
<title>request@2.88.2&#45;&gt;qs@6.9.6</title>
<path fill="none" stroke="#000000" d="M344.304,-467.2247C366.9025,-472.9919 395.4105,-480.2672 417.3564,-485.8678"/>
<polygon fill="#000000" stroke="#000000" points="416.685,-489.3086 427.24,-488.3901 418.416,-482.5259 416.685,-489.3086"/>
</g>
<!-- is&#45;typedarray@1.0.0 -->
<g id="node37" class="node">
<title>is&#45;typedarray@1.0.0</title>
<path fill="none" stroke="#000000" d="M493.2621,-467.3011C493.2621,-467.3011 409.8846,-467.3011 409.8846,-467.3011 406.6509,-467.3011 403.4172,-464.0674 403.4172,-460.8337 403.4172,-460.8337 403.4172,-454.3663 403.4172,-454.3663 403.4172,-451.1326 406.6509,-447.8989 409.8846,-447.8989 409.8846,-447.8989 493.2621,-447.8989 493.2621,-447.8989 496.4958,-447.8989 499.7295,-451.1326 499.7295,-454.3663 499.7295,-454.3663 499.7295,-460.8337 499.7295,-460.8337 499.7295,-464.0674 496.4958,-467.3011 493.2621,-467.3011"/>
<text text-anchor="middle" x="451.5734" y="-454.3" font-family="Roboto Condensed, sans-serif" font-size="11.00" fill="#000000">is&#45;typedarray@1.0.0</text>
</g>
<!-- request@2.88.2&#45;&gt;is&#45;typedarray@1.0.0 -->
<g id="edge42" class="edge">
<title>request@2.88.2&#45;&gt;is&#45;typedarray@1.0.0</title>
<path fill="none" stroke="#000000" d="M344.304,-457.6C359.2425,-457.6 376.7633,-457.6 393.2639,-457.6"/>
<polygon fill="#000000" stroke="#000000" points="393.3738,-461.1001 403.3738,-457.6 393.3738,-454.1001 393.3738,-461.1001"/>
</g>
<!-- har&#45;schema@2.0.0 -->
<g id="node39" class="node">
<title>har&#45;schema@2.0.0</title>
<path fill="none" stroke="#000000" d="M642.0549,-130.3011C642.0549,-130.3011 566.3491,-130.3011 566.3491,-130.3011 563.1154,-130.3011 559.8817,-127.0674 559.8817,-123.8337 559.8817,-123.8337 559.8817,-117.3663 559.8817,-117.3663 559.8817,-114.1326 563.1154,-110.8989 566.3491,-110.8989 566.3491,-110.8989 642.0549,-110.8989 642.0549,-110.8989 645.2886,-110.8989 648.5223,-114.1326 648.5223,-117.3663 648.5223,-117.3663 648.5223,-123.8337 648.5223,-123.8337 648.5223,-127.0674 645.2886,-130.3011 642.0549,-130.3011"/>
<text text-anchor="middle" x="604.202" y="-117.3" font-family="Roboto Condensed, sans-serif" font-size="11.00" fill="#000000">har&#45;schema@2.0.0</text>
</g>
<!-- har&#45;validator@5.1.5&#45;&gt;har&#45;schema@2.0.0 -->
<g id="edge44" class="edge">
<title>har&#45;validator@5.1.5&#45;&gt;har&#45;schema@2.0.0</title>
<path fill="none" stroke="#000000" d="M491.2763,-147.9753C510.6322,-143.283 534.1062,-137.5925 554.6272,-132.6178"/>
<polygon fill="#000000" stroke="#000000" points="555.5391,-135.9982 564.433,-130.2407 553.8899,-129.1953 555.5391,-135.9982"/>
</g>
<!-- ajv@7.2.1 -->
<g id="node46" class="node">
<title>ajv@7.2.1</title>
<path fill="none" stroke="#000000" d="M623.3061,-93.3011C623.3061,-93.3011 585.0979,-93.3011 585.0979,-93.3011 581.8642,-93.3011 578.6305,-90.0674 578.6305,-86.8337 578.6305,-86.8337 578.6305,-80.3663 578.6305,-80.3663 578.6305,-77.1326 581.8642,-73.8989 585.0979,-73.8989 585.0979,-73.8989 623.3061,-73.8989 623.3061,-73.8989 626.5398,-73.8989 629.7735,-77.1326 629.7735,-80.3663 629.7735,-80.3663 629.7735,-86.8337 629.7735,-86.8337 629.7735,-90.0674 626.5398,-93.3011 623.3061,-93.3011"/>
<text text-anchor="middle" x="604.202" y="-80.3" font-family="Roboto Condensed, sans-serif" font-size="11.00" fill="#000000">ajv@7.2.1</text>
</g>
<!-- har&#45;validator@5.1.5&#45;&gt;ajv@7.2.1 -->
<g id="edge53" class="edge">
<title>har&#45;validator@5.1.5&#45;&gt;ajv@7.2.1</title>
<path fill="none" stroke="#000000" d="M493.3415,-147.9619C499.4801,-145.6972 505.5492,-142.9404 510.9566,-139.6 530.7491,-127.3733 527.2276,-113.9288 546.9566,-101.6 553.5911,-97.4541 561.259,-94.1916 568.7833,-91.651"/>
<polygon fill="#000000" stroke="#000000" points="569.9348,-94.9594 578.4928,-88.7135 567.9077,-88.2593 569.9348,-94.9594"/>
</g>
<!-- tunnel&#45;agent@0.6.0&#45;&gt;safe&#45;buffer@5.2.1 -->
<g id="edge27" class="edge">
<title>tunnel&#45;agent@0.6.0&#45;&gt;safe&#45;buffer@5.2.1</title>
<path fill="none" stroke="#000000" d="M498.1963,-387.4039C514.7489,-389.4644 533.5093,-391.7998 550.5981,-393.9271"/>
<polygon fill="#000000" stroke="#000000" points="550.6319,-397.4582 560.9877,-395.2205 551.4966,-390.5119 550.6319,-397.4582"/>
</g>
<!-- delayed&#45;stream@1.0.0 -->
<g id="node42" class="node">
<title>delayed&#45;stream@1.0.0</title>
<path fill="none" stroke="#000000" d="M809.587,-280.3011C809.587,-280.3011 716.8871,-280.3011 716.8871,-280.3011 713.6535,-280.3011 710.4198,-277.0674 710.4198,-273.8337 710.4198,-273.8337 710.4198,-267.3663 710.4198,-267.3663 710.4198,-264.1326 713.6535,-260.8989 716.8871,-260.8989 716.8871,-260.8989 809.587,-260.8989 809.587,-260.8989 812.8206,-260.8989 816.0543,-264.1326 816.0543,-267.3663 816.0543,-267.3663 816.0543,-273.8337 816.0543,-273.8337 816.0543,-277.0674 812.8206,-280.3011 809.587,-280.3011"/>
<text text-anchor="middle" x="763.2371" y="-267.3" font-family="Roboto Condensed, sans-serif" font-size="11.00" fill="#000000">delayed&#45;stream@1.0.0</text>
</g>
<!-- combined&#45;stream@1.0.8&#45;&gt;delayed&#45;stream@1.0.0 -->
<g id="edge49" class="edge">
<title>combined&#45;stream@1.0.8&#45;&gt;delayed&#45;stream@1.0.0</title>
<path fill="none" stroke="#000000" d="M661.6173,-270.6C674.1839,-270.6 687.5505,-270.6 700.3194,-270.6"/>
<polygon fill="#000000" stroke="#000000" points="700.405,-274.1001 710.405,-270.6 700.4049,-267.1001 700.405,-274.1001"/>
</g>
<!-- jsprim@2.0.0 -->
<g id="node38" class="node">
<title>jsprim@2.0.0</title>
<path fill="none" stroke="#000000" d="M630.9755,-560.3011C630.9755,-560.3011 577.4285,-560.3011 577.4285,-560.3011 574.1948,-560.3011 570.9612,-557.0674 570.9612,-553.8337 570.9612,-553.8337 570.9612,-547.3663 570.9612,-547.3663 570.9612,-544.1326 574.1948,-540.8989 577.4285,-540.8989 577.4285,-540.8989 630.9755,-540.8989 630.9755,-540.8989 634.2092,-540.8989 637.4428,-544.1326 637.4428,-547.3663 637.4428,-547.3663 637.4428,-553.8337 637.4428,-553.8337 637.4428,-557.0674 634.2092,-560.3011 630.9755,-560.3011"/>
<text text-anchor="middle" x="604.202" y="-547.3" font-family="Roboto Condensed, sans-serif" font-size="11.00" fill="#000000">jsprim@2.0.0</text>
</g>
<!-- http&#45;signature@1.3.5&#45;&gt;jsprim@2.0.0 -->
<g id="edge43" class="edge">
<title>http&#45;signature@1.3.5&#45;&gt;jsprim@2.0.0</title>
<path fill="none" stroke="#000000" d="M489.9303,-747.9632C497.7275,-744.5078 505.271,-739.8525 510.9566,-733.6 548.7041,-692.0888 519.2064,-661.3645 546.9566,-612.6 556.8235,-595.2612 572.3906,-578.8258 584.8021,-567.2387"/>
<polygon fill="#000000" stroke="#000000" points="587.3376,-569.6648 592.4108,-560.3636 582.6446,-564.471 587.3376,-569.6648"/>
</g>
<!-- sshpk@1.16.1 -->
<g id="node40" class="node">
<title>sshpk@1.16.1</title>
<path fill="none" stroke="#000000" d="M631.921,-768.3011C631.921,-768.3011 576.483,-768.3011 576.483,-768.3011 573.2493,-768.3011 570.0156,-765.0674 570.0156,-761.8337 570.0156,-761.8337 570.0156,-755.3663 570.0156,-755.3663 570.0156,-752.1326 573.2493,-748.8989 576.483,-748.8989 576.483,-748.8989 631.921,-748.8989 631.921,-748.8989 635.1547,-748.8989 638.3884,-752.1326 638.3884,-755.3663 638.3884,-755.3663 638.3884,-761.8337 638.3884,-761.8337 638.3884,-765.0674 635.1547,-768.3011 631.921,-768.3011"/>
<text text-anchor="middle" x="604.202" y="-755.3" font-family="Roboto Condensed, sans-serif" font-size="11.00" fill="#000000">sshpk@1.16.1</text>
</g>
<!-- http&#45;signature@1.3.5&#45;&gt;sshpk@1.16.1 -->
<g id="edge45" class="edge">
<title>http&#45;signature@1.3.5&#45;&gt;sshpk@1.16.1</title>
<path fill="none" stroke="#000000" d="M501.5497,-757.9274C520.2416,-758.0499 541.3364,-758.1881 559.52,-758.3073"/>
<polygon fill="#000000" stroke="#000000" points="559.5454,-761.8074 569.5682,-758.3731 559.5914,-754.8075 559.5454,-761.8074"/>
</g>
<!-- assert&#45;plus@1.0.0 -->
<g id="node41" class="node">
<title>assert&#45;plus@1.0.0</title>
<path fill="none" stroke="#000000" d="M946.2404,-655.3011C946.2404,-655.3011 873.8409,-655.3011 873.8409,-655.3011 870.6072,-655.3011 867.3735,-652.0674 867.3735,-648.8337 867.3735,-648.8337 867.3735,-642.3663 867.3735,-642.3663 867.3735,-639.1326 870.6072,-635.8989 873.8409,-635.8989 873.8409,-635.8989 946.2404,-635.8989 946.2404,-635.8989 949.4741,-635.8989 952.7078,-639.1326 952.7078,-642.3663 952.7078,-642.3663 952.7078,-648.8337 952.7078,-648.8337 952.7078,-652.0674 949.4741,-655.3011 946.2404,-655.3011"/>
<text text-anchor="middle" x="910.0407" y="-642.3" font-family="Roboto Condensed, sans-serif" font-size="11.00" fill="#000000">assert&#45;plus@1.0.0</text>
</g>
<!-- http&#45;signature@1.3.5&#45;&gt;assert&#45;plus@1.0.0 -->
<g id="edge46" class="edge">
<title>http&#45;signature@1.3.5&#45;&gt;assert&#45;plus@1.0.0</title>
<path fill="none" stroke="#000000" d="M476.2518,-747.9618C486.9706,-743.6893 499.6381,-738.5233 510.9566,-733.6 594.8262,-697.1186 608.2035,-666.6131 697.4474,-646.6 750.7939,-634.637 813.5812,-636.1831 857.0241,-639.6104"/>
<polygon fill="#000000" stroke="#000000" points="856.8242,-643.1059 867.0846,-640.4649 857.4168,-636.131 856.8242,-643.1059"/>
</g>
<!-- form&#45;data@4.0.0&#45;&gt;mime&#45;types@2.1.29 -->
<g id="edge37" class="edge">
<title>form&#45;data@4.0.0&#45;&gt;mime&#45;types@2.1.29</title>
<path fill="none" stroke="#000000" d="M492.3423,-276.9752C499.2587,-279.6233 505.8448,-283.3529 510.9566,-288.6 553.0909,-331.8496 516.3128,-367.5732 546.9566,-419.6 556.1293,-435.1733 570.748,-449.3709 582.9163,-459.5741"/>
<polygon fill="#000000" stroke="#000000" points="580.8689,-462.4191 590.8519,-465.9674 585.2606,-456.9681 580.8689,-462.4191"/>
</g>
<!-- form&#45;data@4.0.0&#45;&gt;combined&#45;stream@1.0.8 -->
<g id="edge36" class="edge">
<title>form&#45;data@4.0.0&#45;&gt;combined&#45;stream@1.0.8</title>
<path fill="none" stroke="#000000" d="M492.475,-270.6C506.0349,-270.6 521.5113,-270.6 536.5349,-270.6"/>
<polygon fill="#000000" stroke="#000000" points="536.8344,-274.1001 546.8343,-270.6 536.8343,-267.1001 536.8344,-274.1001"/>
</g>
<!-- asynckit@0.4.0 -->
<g id="node43" class="node">
<title>asynckit@0.4.0</title>
<path fill="none" stroke="#000000" d="M635.0223,-317.3011C635.0223,-317.3011 573.3817,-317.3011 573.3817,-317.3011 570.148,-317.3011 566.9143,-314.0674 566.9143,-310.8337 566.9143,-310.8337 566.9143,-304.3663 566.9143,-304.3663 566.9143,-301.1326 570.148,-297.8989 573.3817,-297.8989 573.3817,-297.8989 635.0223,-297.8989 635.0223,-297.8989 638.256,-297.8989 641.4897,-301.1326 641.4897,-304.3663 641.4897,-304.3663 641.4897,-310.8337 641.4897,-310.8337 641.4897,-314.0674 638.256,-317.3011 635.0223,-317.3011"/>
<text text-anchor="middle" x="604.202" y="-304.3" font-family="Roboto Condensed, sans-serif" font-size="11.00" fill="#000000">asynckit@0.4.0</text>
</g>
<!-- form&#45;data@4.0.0&#45;&gt;asynckit@0.4.0 -->
<g id="edge50" class="edge">
<title>form&#45;data@4.0.0&#45;&gt;asynckit@0.4.0</title>
<path fill="none" stroke="#000000" d="M491.2763,-280.2247C511.4065,-285.1046 535.9907,-291.0643 557.0751,-296.1756"/>
<polygon fill="#000000" stroke="#000000" points="556.2545,-299.578 566.7977,-298.5325 557.9038,-292.775 556.2545,-299.578"/>
</g>
<!-- punycode@2.1.1 -->
<g id="node44" class="node">
<title>punycode@2.1.1</title>
<path fill="none" stroke="#000000" d="M943.969,-149.3011C943.969,-149.3011 876.1123,-149.3011 876.1123,-149.3011 872.8786,-149.3011 869.6449,-146.0674 869.6449,-142.8337 869.6449,-142.8337 869.6449,-136.3663 869.6449,-136.3663 869.6449,-133.1326 872.8786,-129.8989 876.1123,-129.8989 876.1123,-129.8989 943.969,-129.8989 943.969,-129.8989 947.2027,-129.8989 950.4364,-133.1326 950.4364,-136.3663 950.4364,-136.3663 950.4364,-142.8337 950.4364,-142.8337 950.4364,-146.0674 947.2027,-149.3011 943.969,-149.3011"/>
<text text-anchor="middle" x="910.0407" y="-136.3" font-family="Roboto Condensed, sans-serif" font-size="11.00" fill="#000000">punycode@2.1.1</text>
</g>
<!-- tough&#45;cookie@4.0.0&#45;&gt;punycode@2.1.1 -->
<g id="edge51" class="edge">
<title>tough&#45;cookie@4.0.0&#45;&gt;punycode@2.1.1</title>
<path fill="none" stroke="#000000" d="M490.7588,-204.2109C507.8952,-207.944 528.3048,-211.7604 546.9566,-213.6 672.7845,-226.0103 709.1212,-216.7167 829.0267,-176.6 847.4843,-170.4246 867.3773,-161.3767 882.8317,-153.7741"/>
<polygon fill="#000000" stroke="#000000" points="884.456,-156.8751 891.8281,-149.2657 881.3198,-150.6169 884.456,-156.8751"/>
</g>
<!-- universalify@2.0.0 -->
<g id="node45" class="node">
<title>universalify@2.0.0</title>
<path fill="none" stroke="#000000" d="M642.9033,-204.3011C642.9033,-204.3011 565.5007,-204.3011 565.5007,-204.3011 562.267,-204.3011 559.0333,-201.0674 559.0333,-197.8337 559.0333,-197.8337 559.0333,-191.3663 559.0333,-191.3663 559.0333,-188.1326 562.267,-184.8989 565.5007,-184.8989 565.5007,-184.8989 642.9033,-184.8989 642.9033,-184.8989 646.137,-184.8989 649.3707,-188.1326 649.3707,-191.3663 649.3707,-191.3663 649.3707,-197.8337 649.3707,-197.8337 649.3707,-201.0674 646.137,-204.3011 642.9033,-204.3011"/>
<text text-anchor="middle" x="604.202" y="-191.3" font-family="Roboto Condensed, sans-serif" font-size="11.00" fill="#000000">universalify@2.0.0</text>
</g>
<!-- tough&#45;cookie@4.0.0&#45;&gt;universalify@2.0.0 -->
<g id="edge52" class="edge">
<title>tough&#45;cookie@4.0.0&#45;&gt;universalify@2.0.0</title>
<path fill="none" stroke="#000000" d="M499.866,-194.6C515.3406,-194.6 532.6004,-194.6 548.5564,-194.6"/>
<polygon fill="#000000" stroke="#000000" points="548.8216,-198.1001 558.8216,-194.6 548.8216,-191.1001 548.8216,-198.1001"/>
</g>
<!-- psl@1.8.0 -->
<g id="node48" class="node">
<title>psl@1.8.0</title>
<path fill="none" stroke="#000000" d="M623.1993,-167.3011C623.1993,-167.3011 585.2047,-167.3011 585.2047,-167.3011 581.971,-167.3011 578.7373,-164.0674 578.7373,-160.8337 578.7373,-160.8337 578.7373,-154.3663 578.7373,-154.3663 578.7373,-151.1326 581.971,-147.8989 585.2047,-147.8989 585.2047,-147.8989 623.1993,-147.8989 623.1993,-147.8989 626.433,-147.8989 629.6667,-151.1326 629.6667,-154.3663 629.6667,-154.3663 629.6667,-160.8337 629.6667,-160.8337 629.6667,-164.0674 626.433,-167.3011 623.1993,-167.3011"/>
<text text-anchor="middle" x="604.202" y="-154.3" font-family="Roboto Condensed, sans-serif" font-size="11.00" fill="#000000">psl@1.8.0</text>
</g>
<!-- tough&#45;cookie@4.0.0&#45;&gt;psl@1.8.0 -->
<g id="edge55" class="edge">
<title>tough&#45;cookie@4.0.0&#45;&gt;psl@1.8.0</title>
<path fill="none" stroke="#000000" d="M491.2763,-184.9753C515.2818,-179.1559 545.6213,-171.801 568.8063,-166.1806"/>
<polygon fill="#000000" stroke="#000000" points="569.6916,-169.5674 578.5855,-163.8099 568.0424,-162.7645 569.6916,-169.5674"/>
</g>
<!-- uniq@1.0.1 -->
<g id="node47" class="node">
<title>uniq@1.0.1</title>
<path fill="none" stroke="#000000" d="M626.4223,-805.3011C626.4223,-805.3011 581.9817,-805.3011 581.9817,-805.3011 578.748,-805.3011 575.5144,-802.0674 575.5144,-798.8337 575.5144,-798.8337 575.5144,-792.3663 575.5144,-792.3663 575.5144,-789.1326 578.748,-785.8989 581.9817,-785.8989 581.9817,-785.8989 626.4223,-785.8989 626.4223,-785.8989 629.656,-785.8989 632.8896,-789.1326 632.8896,-792.3663 632.8896,-792.3663 632.8896,-798.8337 632.8896,-798.8337 632.8896,-802.0674 629.656,-805.3011 626.4223,-805.3011"/>
<text text-anchor="middle" x="604.202" y="-792.3" font-family="Roboto Condensed, sans-serif" font-size="11.00" fill="#000000">uniq@1.0.1</text>
</g>
<!-- cwise&#45;compiler@1.1.3&#45;&gt;uniq@1.0.1 -->
<g id="edge54" class="edge">
<title>cwise&#45;compiler@1.1.3&#45;&gt;uniq@1.0.1</title>
<path fill="none" stroke="#000000" d="M504.5271,-795.6C524.4846,-795.6 546.8011,-795.6 565.2501,-795.6"/>
<polygon fill="#000000" stroke="#000000" points="565.3396,-799.1001 575.3395,-795.6 565.3395,-792.1001 565.3396,-799.1001"/>
</g>
<!-- jsprim@2.0.0&#45;&gt;assert&#45;plus@1.0.0 -->
<g id="edge47" class="edge">
<title>jsprim@2.0.0&#45;&gt;assert&#45;plus@1.0.0</title>
<path fill="none" stroke="#000000" d="M637.3357,-558.4386C681.5172,-569.1848 761.9471,-589.7772 829.0267,-612.6 845.7744,-618.2981 864.0543,-625.6431 879.0046,-631.9565"/>
<polygon fill="#000000" stroke="#000000" points="877.7277,-635.217 888.2987,-635.9287 880.4788,-628.7802 877.7277,-635.217"/>
</g>
<!-- json&#45;schema@0.3.0 -->
<g id="node51" class="node">
<title>json&#45;schema@0.3.0</title>
<path fill="none" stroke="#000000" d="M803.3798,-484.3011C803.3798,-484.3011 723.0943,-484.3011 723.0943,-484.3011 719.8606,-484.3011 716.6269,-481.0674 716.6269,-477.8337 716.6269,-477.8337 716.6269,-471.3663 716.6269,-471.3663 716.6269,-468.1326 719.8606,-464.8989 723.0943,-464.8989 723.0943,-464.8989 803.3798,-464.8989 803.3798,-464.8989 806.6135,-464.8989 809.8472,-468.1326 809.8472,-471.3663 809.8472,-471.3663 809.8472,-477.8337 809.8472,-477.8337 809.8472,-481.0674 806.6135,-484.3011 803.3798,-484.3011"/>
<text text-anchor="middle" x="763.2371" y="-471.3" font-family="Roboto Condensed, sans-serif" font-size="11.00" fill="#000000">json&#45;schema@0.3.0</text>
</g>
<!-- jsprim@2.0.0&#45;&gt;json&#45;schema@0.3.0 -->
<g id="edge59" class="edge">
<title>jsprim@2.0.0&#45;&gt;json&#45;schema@0.3.0</title>
<path fill="none" stroke="#000000" d="M619.6444,-540.985C637.8237,-529.9046 669.1328,-511.5601 697.4474,-498.6 705.9719,-494.6982 715.3299,-490.9694 724.246,-487.6635"/>
<polygon fill="#000000" stroke="#000000" points="725.4705,-490.9427 733.6871,-484.254 723.0928,-484.3588 725.4705,-490.9427"/>
</g>
<!-- verror@1.10.0 -->
<g id="node53" class="node">
<title>verror@1.10.0</title>
<path fill="none" stroke="#000000" d="M792.27,-560.3011C792.27,-560.3011 734.2041,-560.3011 734.2041,-560.3011 730.9705,-560.3011 727.7368,-557.0674 727.7368,-553.8337 727.7368,-553.8337 727.7368,-547.3663 727.7368,-547.3663 727.7368,-544.1326 730.9705,-540.8989 734.2041,-540.8989 734.2041,-540.8989 792.27,-540.8989 792.27,-540.8989 795.5036,-540.8989 798.7373,-544.1326 798.7373,-547.3663 798.7373,-547.3663 798.7373,-553.8337 798.7373,-553.8337 798.7373,-557.0674 795.5036,-560.3011 792.27,-560.3011"/>
<text text-anchor="middle" x="763.2371" y="-547.3" font-family="Roboto Condensed, sans-serif" font-size="11.00" fill="#000000">verror@1.10.0</text>
</g>
<!-- jsprim@2.0.0&#45;&gt;verror@1.10.0 -->
<g id="edge61" class="edge">
<title>jsprim@2.0.0&#45;&gt;verror@1.10.0</title>
<path fill="none" stroke="#000000" d="M637.541,-550.6C660.7563,-550.6 692.008,-550.6 717.5414,-550.6"/>
<polygon fill="#000000" stroke="#000000" points="717.7336,-554.1001 727.7336,-550.6 717.7336,-547.1001 717.7336,-554.1001"/>
</g>
<!-- extsprintf@1.4.0 -->
<g id="node58" class="node">
<title>extsprintf@1.4.0</title>
<path fill="none" stroke="#000000" d="M943.859,-522.3011C943.859,-522.3011 876.2223,-522.3011 876.2223,-522.3011 872.9886,-522.3011 869.7549,-519.0674 869.7549,-515.8337 869.7549,-515.8337 869.7549,-509.3663 869.7549,-509.3663 869.7549,-506.1326 872.9886,-502.8989 876.2223,-502.8989 876.2223,-502.8989 943.859,-502.8989 943.859,-502.8989 947.0927,-502.8989 950.3264,-506.1326 950.3264,-509.3663 950.3264,-509.3663 950.3264,-515.8337 950.3264,-515.8337 950.3264,-519.0674 947.0927,-522.3011 943.859,-522.3011"/>
<text text-anchor="middle" x="910.0407" y="-509.3" font-family="Roboto Condensed, sans-serif" font-size="11.00" fill="#000000">extsprintf@1.4.0</text>
</g>
<!-- jsprim@2.0.0&#45;&gt;extsprintf@1.4.0 -->
<g id="edge70" class="edge">
<title>jsprim@2.0.0&#45;&gt;extsprintf@1.4.0</title>
<path fill="none" stroke="#000000" d="M637.7073,-542.8276C655.3914,-538.9655 677.5034,-534.5138 697.4474,-531.6 752.4918,-523.558 816.0855,-518.4141 859.2728,-515.5349"/>
<polygon fill="#000000" stroke="#000000" points="859.7713,-519.01 869.5231,-514.8685 859.3171,-512.0247 859.7713,-519.01"/>
</g>
<!-- sshpk@1.16.1&#45;&gt;assert&#45;plus@1.0.0 -->
<g id="edge48" class="edge">
<title>sshpk@1.16.1&#45;&gt;assert&#45;plus@1.0.0</title>
<path fill="none" stroke="#000000" d="M612.9196,-748.9608C628.2744,-732.6435 661.899,-699.7798 697.4474,-683.6 748.5767,-660.3286 812.679,-651.2808 857.055,-647.7786"/>
<polygon fill="#000000" stroke="#000000" points="857.3285,-651.2681 867.0505,-647.0571 856.8244,-644.2863 857.3285,-651.2681"/>
</g>
<!-- getpass@0.1.7 -->
<g id="node49" class="node">
<title>getpass@0.1.7</title>
<path fill="none" stroke="#000000" d="M791.7798,-749.3011C791.7798,-749.3011 734.6943,-749.3011 734.6943,-749.3011 731.4606,-749.3011 728.2269,-746.0674 728.2269,-742.8337 728.2269,-742.8337 728.2269,-736.3663 728.2269,-736.3663 728.2269,-733.1326 731.4606,-729.8989 734.6943,-729.8989 734.6943,-729.8989 791.7798,-729.8989 791.7798,-729.8989 795.0135,-729.8989 798.2472,-733.1326 798.2472,-736.3663 798.2472,-736.3663 798.2472,-742.8337 798.2472,-742.8337 798.2472,-746.0674 795.0135,-749.3011 791.7798,-749.3011"/>
<text text-anchor="middle" x="763.2371" y="-736.3" font-family="Roboto Condensed, sans-serif" font-size="11.00" fill="#000000">getpass@0.1.7</text>
</g>
<!-- sshpk@1.16.1&#45;&gt;getpass@0.1.7 -->
<g id="edge56" class="edge">
<title>sshpk@1.16.1&#45;&gt;getpass@0.1.7</title>
<path fill="none" stroke="#000000" d="M638.7102,-754.4773C661.9146,-751.705 692.7437,-748.0219 717.9212,-745.0139"/>
<polygon fill="#000000" stroke="#000000" points="718.4572,-748.4749 727.9713,-743.8132 717.6267,-741.5243 718.4572,-748.4749"/>
</g>
<!-- tweetnacl@1.0.3 -->
<g id="node50" class="node">
<title>tweetnacl@1.0.3</title>
<path fill="none" stroke="#000000" d="M943.8468,-957.3011C943.8468,-957.3011 876.2345,-957.3011 876.2345,-957.3011 873.0008,-957.3011 869.7671,-954.0674 869.7671,-950.8337 869.7671,-950.8337 869.7671,-944.3663 869.7671,-944.3663 869.7671,-941.1326 873.0008,-937.8989 876.2345,-937.8989 876.2345,-937.8989 943.8468,-937.8989 943.8468,-937.8989 947.0805,-937.8989 950.3142,-941.1326 950.3142,-944.3663 950.3142,-944.3663 950.3142,-950.8337 950.3142,-950.8337 950.3142,-954.0674 947.0805,-957.3011 943.8468,-957.3011"/>
<text text-anchor="middle" x="910.0407" y="-944.3" font-family="Roboto Condensed, sans-serif" font-size="11.00" fill="#000000">tweetnacl@1.0.3</text>
</g>
<!-- sshpk@1.16.1&#45;&gt;tweetnacl@1.0.3 -->
<g id="edge58" class="edge">
<title>sshpk@1.16.1&#45;&gt;tweetnacl@1.0.3</title>
<path fill="none" stroke="#000000" d="M638.6772,-763.6226C647.0238,-766.2921 655.3003,-770.3712 661.4474,-776.6 700.5597,-816.2317 656.9875,-858.3451 697.4474,-896.6 740.9995,-937.7785 811.7136,-947.5608 859.5084,-949.0118"/>
<polygon fill="#000000" stroke="#000000" points="859.5741,-952.5136 869.6393,-949.2058 859.7081,-945.5149 859.5741,-952.5136"/>
</g>
<!-- ecc&#45;jsbn@0.2.0 -->
<g id="node52" class="node">
<title>ecc&#45;jsbn@0.2.0</title>
<path fill="none" stroke="#000000" d="M794.0453,-825.3011C794.0453,-825.3011 732.4288,-825.3011 732.4288,-825.3011 729.1951,-825.3011 725.9614,-822.0674 725.9614,-818.8337 725.9614,-818.8337 725.9614,-812.3663 725.9614,-812.3663 725.9614,-809.1326 729.1951,-805.8989 732.4288,-805.8989 732.4288,-805.8989 794.0453,-805.8989 794.0453,-805.8989 797.279,-805.8989 800.5127,-809.1326 800.5127,-812.3663 800.5127,-812.3663 800.5127,-818.8337 800.5127,-818.8337 800.5127,-822.0674 797.279,-825.3011 794.0453,-825.3011"/>
<text text-anchor="middle" x="763.2371" y="-812.3" font-family="Roboto Condensed, sans-serif" font-size="11.00" fill="#000000">ecc&#45;jsbn@0.2.0</text>
</g>
<!-- sshpk@1.16.1&#45;&gt;ecc&#45;jsbn@0.2.0 -->
<g id="edge60" class="edge">
<title>sshpk@1.16.1&#45;&gt;ecc&#45;jsbn@0.2.0</title>
<path fill="none" stroke="#000000" d="M636.7669,-768.2808C644.8775,-770.8449 653.5195,-773.7086 661.4474,-776.6 677.7315,-782.539 681.3015,-785.2949 697.4474,-791.6 706.7774,-795.2434 716.9157,-799.0273 726.3758,-802.484"/>
<polygon fill="#000000" stroke="#000000" points="725.3322,-805.8285 735.9264,-805.9481 727.7191,-799.248 725.3322,-805.8285"/>
</g>
<!-- asn1@0.2.4 -->
<g id="node54" class="node">
<title>asn1@0.2.4</title>
<path fill="none" stroke="#000000" d="M786.0611,-862.3011C786.0611,-862.3011 740.413,-862.3011 740.413,-862.3011 737.1793,-862.3011 733.9456,-859.0674 733.9456,-855.8337 733.9456,-855.8337 733.9456,-849.3663 733.9456,-849.3663 733.9456,-846.1326 737.1793,-842.8989 740.413,-842.8989 740.413,-842.8989 786.0611,-842.8989 786.0611,-842.8989 789.2948,-842.8989 792.5285,-846.1326 792.5285,-849.3663 792.5285,-849.3663 792.5285,-855.8337 792.5285,-855.8337 792.5285,-859.0674 789.2948,-862.3011 786.0611,-862.3011"/>
<text text-anchor="middle" x="763.2371" y="-849.3" font-family="Roboto Condensed, sans-serif" font-size="11.00" fill="#000000">asn1@0.2.4</text>
</g>
<!-- sshpk@1.16.1&#45;&gt;asn1@0.2.4 -->
<g id="edge63" class="edge">
<title>sshpk@1.16.1&#45;&gt;asn1@0.2.4</title>
<path fill="none" stroke="#000000" d="M638.5351,-765.0812C646.6018,-767.7245 654.7808,-771.4262 661.4474,-776.6 685.4159,-795.2011 673.1336,-816.4525 697.4474,-834.6 705.183,-840.3737 714.6628,-844.2956 723.9916,-846.9595"/>
<polygon fill="#000000" stroke="#000000" points="723.4217,-850.4228 733.9655,-849.3844 725.0755,-843.6209 723.4217,-850.4228"/>
</g>
<!-- dashdash@2.0.0 -->
<g id="node55" class="node">
<title>dashdash@2.0.0</title>
<path fill="none" stroke="#000000" d="M796.2225,-712.3011C796.2225,-712.3011 730.2516,-712.3011 730.2516,-712.3011 727.0179,-712.3011 723.7842,-709.0674 723.7842,-705.8337 723.7842,-705.8337 723.7842,-699.3663 723.7842,-699.3663 723.7842,-696.1326 727.0179,-692.8989 730.2516,-692.8989 730.2516,-692.8989 796.2225,-692.8989 796.2225,-692.8989 799.4562,-692.8989 802.6899,-696.1326 802.6899,-699.3663 802.6899,-699.3663 802.6899,-705.8337 802.6899,-705.8337 802.6899,-709.0674 799.4562,-712.3011 796.2225,-712.3011"/>
<text text-anchor="middle" x="763.2371" y="-699.3" font-family="Roboto Condensed, sans-serif" font-size="11.00" fill="#000000">dashdash@2.0.0</text>
</g>
<!-- sshpk@1.16.1&#45;&gt;dashdash@2.0.0 -->
<g id="edge64" class="edge">
<title>sshpk@1.16.1&#45;&gt;dashdash@2.0.0</title>
<path fill="none" stroke="#000000" d="M625.7778,-748.9453C644.5001,-740.7764 672.4499,-729.0792 697.4474,-720.6 703.1228,-718.6749 709.1254,-716.8075 715.1041,-715.0502"/>
<polygon fill="#000000" stroke="#000000" points="716.4239,-718.3135 725.0812,-712.206 714.5047,-711.5817 716.4239,-718.3135"/>
</g>
<!-- bcrypt&#45;pbkdf@1.0.2 -->
<g id="node56" class="node">
<title>bcrypt&#45;pbkdf@1.0.2</title>
<path fill="none" stroke="#000000" d="M804.3261,-976.3011C804.3261,-976.3011 722.148,-976.3011 722.148,-976.3011 718.9143,-976.3011 715.6806,-973.0674 715.6806,-969.8337 715.6806,-969.8337 715.6806,-963.3663 715.6806,-963.3663 715.6806,-960.1326 718.9143,-956.8989 722.148,-956.8989 722.148,-956.8989 804.3261,-956.8989 804.3261,-956.8989 807.5598,-956.8989 810.7935,-960.1326 810.7935,-963.3663 810.7935,-963.3663 810.7935,-969.8337 810.7935,-969.8337 810.7935,-973.0674 807.5598,-976.3011 804.3261,-976.3011"/>
<text text-anchor="middle" x="763.2371" y="-963.3" font-family="Roboto Condensed, sans-serif" font-size="11.00" fill="#000000">bcrypt&#45;pbkdf@1.0.2</text>
</g>
<!-- sshpk@1.16.1&#45;&gt;bcrypt&#45;pbkdf@1.0.2 -->
<g id="edge66" class="edge">
<title>sshpk@1.16.1&#45;&gt;bcrypt&#45;pbkdf@1.0.2</title>
<path fill="none" stroke="#000000" d="M638.4158,-763.1165C646.9646,-765.7801 655.407,-769.9827 661.4474,-776.6 712.3432,-832.3564 647.8232,-885.7089 697.4474,-942.6 700.6742,-946.2993 704.5195,-949.4287 708.7082,-952.0759"/>
<polygon fill="#000000" stroke="#000000" points="707.2276,-955.2527 717.6997,-956.8607 710.516,-949.0732 707.2276,-955.2527"/>
</g>
<!-- safer&#45;buffer@2.1.2 -->
<g id="node57" class="node">
<title>safer&#45;buffer@2.1.2</title>
<path fill="none" stroke="#000000" d="M948.6012,-881.3011C948.6012,-881.3011 871.4801,-881.3011 871.4801,-881.3011 868.2464,-881.3011 865.0127,-878.0674 865.0127,-874.8337 865.0127,-874.8337 865.0127,-868.3663 865.0127,-868.3663 865.0127,-865.1326 868.2464,-861.8989 871.4801,-861.8989 871.4801,-861.8989 948.6012,-861.8989 948.6012,-861.8989 951.8349,-861.8989 955.0686,-865.1326 955.0686,-868.3663 955.0686,-868.3663 955.0686,-874.8337 955.0686,-874.8337 955.0686,-878.0674 951.8349,-881.3011 948.6012,-881.3011"/>
<text text-anchor="middle" x="910.0407" y="-868.3" font-family="Roboto Condensed, sans-serif" font-size="11.00" fill="#000000">safer&#45;buffer@2.1.2</text>
</g>
<!-- sshpk@1.16.1&#45;&gt;safer&#45;buffer@2.1.2 -->
<g id="edge68" class="edge">
<title>sshpk@1.16.1&#45;&gt;safer&#45;buffer@2.1.2</title>
<path fill="none" stroke="#000000" d="M638.6822,-764.0182C646.9314,-766.6852 655.1595,-770.6641 661.4474,-776.6 694.2806,-807.5951 660.2913,-845.9457 697.4474,-871.6 748.6972,-906.9852 824.7488,-895.7232 870.6409,-883.9342"/>
<polygon fill="#000000" stroke="#000000" points="871.7694,-887.2549 880.5121,-881.2703 869.9455,-880.4967 871.7694,-887.2549"/>
</g>
<!-- jsbn@1.1.0 -->
<g id="node59" class="node">
<title>jsbn@1.1.0</title>
<path fill="none" stroke="#000000" d="M932.0399,-806.3011C932.0399,-806.3011 888.0414,-806.3011 888.0414,-806.3011 884.8077,-806.3011 881.574,-803.0674 881.574,-799.8337 881.574,-799.8337 881.574,-793.3663 881.574,-793.3663 881.574,-790.1326 884.8077,-786.8989 888.0414,-786.8989 888.0414,-786.8989 932.0399,-786.8989 932.0399,-786.8989 935.2736,-786.8989 938.5073,-790.1326 938.5073,-793.3663 938.5073,-793.3663 938.5073,-799.8337 938.5073,-799.8337 938.5073,-803.0674 935.2736,-806.3011 932.0399,-806.3011"/>
<text text-anchor="middle" x="910.0407" y="-793.3" font-family="Roboto Condensed, sans-serif" font-size="11.00" fill="#000000">jsbn@1.1.0</text>
</g>
<!-- sshpk@1.16.1&#45;&gt;jsbn@1.1.0 -->
<g id="edge72" class="edge">
<title>sshpk@1.16.1&#45;&gt;jsbn@1.1.0</title>
<path fill="none" stroke="#000000" d="M638.3953,-762.8485C695.743,-769.9738 810.9374,-784.2866 871.2327,-791.7782"/>
<polygon fill="#000000" stroke="#000000" points="871.12,-795.291 881.4752,-793.0508 871.9831,-788.3444 871.12,-795.291"/>
</g>
<!-- fast&#45;deep&#45;equal@3.1.3 -->
<g id="node60" class="node">
<title>fast&#45;deep&#45;equal@3.1.3</title>
<path fill="none" stroke="#000000" d="M809.6915,-93.3011C809.6915,-93.3011 716.7826,-93.3011 716.7826,-93.3011 713.5489,-93.3011 710.3152,-90.0674 710.3152,-86.8337 710.3152,-86.8337 710.3152,-80.3663 710.3152,-80.3663 710.3152,-77.1326 713.5489,-73.8989 716.7826,-73.8989 716.7826,-73.8989 809.6915,-73.8989 809.6915,-73.8989 812.9252,-73.8989 816.1589,-77.1326 816.1589,-80.3663 816.1589,-80.3663 816.1589,-86.8337 816.1589,-86.8337 816.1589,-90.0674 812.9252,-93.3011 809.6915,-93.3011"/>
<text text-anchor="middle" x="763.2371" y="-80.3" font-family="Roboto Condensed, sans-serif" font-size="11.00" fill="#000000">fast&#45;deep&#45;equal@3.1.3</text>
</g>
<!-- ajv@7.2.1&#45;&gt;fast&#45;deep&#45;equal@3.1.3 -->
<g id="edge74" class="edge">
<title>ajv@7.2.1&#45;&gt;fast&#45;deep&#45;equal@3.1.3</title>
<path fill="none" stroke="#000000" d="M630.1077,-83.6C649.0532,-83.6 675.5989,-83.6 700.0058,-83.6"/>
<polygon fill="#000000" stroke="#000000" points="700.3066,-87.1001 710.3066,-83.6 700.3065,-80.1001 700.3066,-87.1001"/>
</g>
<!-- json&#45;schema&#45;traverse@1.0.0 -->
<g id="node61" class="node">
<title>json&#45;schema&#45;traverse@1.0.0</title>
<path fill="none" stroke="#000000" d="M822.3497,-167.3011C822.3497,-167.3011 704.1244,-167.3011 704.1244,-167.3011 700.8908,-167.3011 697.6571,-164.0674 697.6571,-160.8337 697.6571,-160.8337 697.6571,-154.3663 697.6571,-154.3663 697.6571,-151.1326 700.8908,-147.8989 704.1244,-147.8989 704.1244,-147.8989 822.3497,-147.8989 822.3497,-147.8989 825.5833,-147.8989 828.817,-151.1326 828.817,-154.3663 828.817,-154.3663 828.817,-160.8337 828.817,-160.8337 828.817,-164.0674 825.5833,-167.3011 822.3497,-167.3011"/>
<text text-anchor="middle" x="763.2371" y="-154.3" font-family="Roboto Condensed, sans-serif" font-size="11.00" fill="#000000">json&#45;schema&#45;traverse@1.0.0</text>
</g>
<!-- ajv@7.2.1&#45;&gt;json&#45;schema&#45;traverse@1.0.0 -->
<g id="edge75" class="edge">
<title>ajv@7.2.1&#45;&gt;json&#45;schema&#45;traverse@1.0.0</title>
<path fill="none" stroke="#000000" d="M629.9112,-88.7135C640.2263,-91.502 651.9057,-95.6373 661.4474,-101.6 681.1764,-113.9288 677.4902,-127.6441 697.4474,-139.6 700.2409,-141.2735 703.1934,-142.7952 706.2386,-144.1784"/>
<polygon fill="#000000" stroke="#000000" points="705.0011,-147.453 715.5854,-147.9256 707.606,-140.9557 705.0011,-147.453"/>
</g>
<!-- uri&#45;js@4.4.1 -->
<g id="node62" class="node">
<title>uri&#45;js@4.4.1</title>
<path fill="none" stroke="#000000" d="M787.6161,-56.3011C787.6161,-56.3011 738.858,-56.3011 738.858,-56.3011 735.6244,-56.3011 732.3907,-53.0674 732.3907,-49.8337 732.3907,-49.8337 732.3907,-43.3663 732.3907,-43.3663 732.3907,-40.1326 735.6244,-36.8989 738.858,-36.8989 738.858,-36.8989 787.6161,-36.8989 787.6161,-36.8989 790.8497,-36.8989 794.0834,-40.1326 794.0834,-43.3663 794.0834,-43.3663 794.0834,-49.8337 794.0834,-49.8337 794.0834,-53.0674 790.8497,-56.3011 787.6161,-56.3011"/>
<text text-anchor="middle" x="763.2371" y="-43.3" font-family="Roboto Condensed, sans-serif" font-size="11.00" fill="#000000">uri&#45;js@4.4.1</text>
</g>
<!-- ajv@7.2.1&#45;&gt;uri&#45;js@4.4.1 -->
<g id="edge76" class="edge">
<title>ajv@7.2.1&#45;&gt;uri&#45;js@4.4.1</title>
<path fill="none" stroke="#000000" d="M630.1077,-77.573C655.1449,-71.748 693.4555,-62.8349 722.5619,-56.0632"/>
<polygon fill="#000000" stroke="#000000" points="723.4898,-59.4409 732.4365,-53.7658 721.9035,-52.623 723.4898,-59.4409"/>
</g>
<!-- require&#45;from&#45;string@2.0.2 -->
<g id="node63" class="node">
<title>require&#45;from&#45;string@2.0.2</title>
<path fill="none" stroke="#000000" d="M818.3042,-130.3011C818.3042,-130.3011 708.1699,-130.3011 708.1699,-130.3011 704.9362,-130.3011 701.7025,-127.0674 701.7025,-123.8337 701.7025,-123.8337 701.7025,-117.3663 701.7025,-117.3663 701.7025,-114.1326 704.9362,-110.8989 708.1699,-110.8989 708.1699,-110.8989 818.3042,-110.8989 818.3042,-110.8989 821.5379,-110.8989 824.7716,-114.1326 824.7716,-117.3663 824.7716,-117.3663 824.7716,-123.8337 824.7716,-123.8337 824.7716,-127.0674 821.5379,-130.3011 818.3042,-130.3011"/>
<text text-anchor="middle" x="763.2371" y="-117.3" font-family="Roboto Condensed, sans-serif" font-size="11.00" fill="#000000">require&#45;from&#45;string@2.0.2</text>
</g>
<!-- ajv@7.2.1&#45;&gt;require&#45;from&#45;string@2.0.2 -->
<g id="edge78" class="edge">
<title>ajv@7.2.1&#45;&gt;require&#45;from&#45;string@2.0.2</title>
<path fill="none" stroke="#000000" d="M630.1077,-89.627C652.2136,-94.77 684.6666,-102.3203 711.9962,-108.6786"/>
<polygon fill="#000000" stroke="#000000" points="711.2714,-112.1034 721.8045,-110.9606 712.8577,-105.2855 711.2714,-112.1034"/>
</g>
<!-- getpass@0.1.7&#45;&gt;assert&#45;plus@1.0.0 -->
<g id="edge57" class="edge">
<title>getpass@0.1.7&#45;&gt;assert&#45;plus@1.0.0</title>
<path fill="none" stroke="#000000" d="M798.2788,-733.3655C808.5924,-730.6589 819.6236,-726.8631 829.0267,-721.6 856.0705,-706.4632 881.0858,-680.3816 895.9624,-663.0611"/>
<polygon fill="#000000" stroke="#000000" points="898.6827,-665.2641 902.4154,-655.3485 893.314,-660.7721 898.6827,-665.2641"/>
</g>
<!-- ecc&#45;jsbn@0.2.0&#45;&gt;jsbn@1.1.0 -->
<g id="edge73" class="edge">
<title>ecc&#45;jsbn@0.2.0&#45;&gt;jsbn@1.1.0</title>
<path fill="none" stroke="#000000" d="M800.6616,-810.7563C822.3689,-807.9469 849.6534,-804.4156 871.5411,-801.5828"/>
<polygon fill="#000000" stroke="#000000" points="872.0225,-805.0498 881.4906,-800.2951 871.124,-798.1077 872.0225,-805.0498"/>
</g>
<!-- verror@1.10.0&#45;&gt;assert&#45;plus@1.0.0 -->
<g id="edge62" class="edge">
<title>verror@1.10.0&#45;&gt;assert&#45;plus@1.0.0</title>
<path fill="none" stroke="#000000" d="M797.1168,-560.2722C807.7111,-563.9933 819.1933,-568.7761 829.0267,-574.6 854.103,-589.4516 878.67,-612.5314 894.0556,-628.3185"/>
<polygon fill="#000000" stroke="#000000" points="891.7833,-631.0073 901.2184,-635.8271 896.8484,-626.1755 891.7833,-631.0073"/>
</g>
<!-- verror@1.10.0&#45;&gt;extsprintf@1.4.0 -->
<g id="edge71" class="edge">
<title>verror@1.10.0&#45;&gt;extsprintf@1.4.0</title>
<path fill="none" stroke="#000000" d="M798.7741,-541.4013C818.0261,-536.4179 842.0637,-530.1958 862.8656,-524.8112"/>
<polygon fill="#000000" stroke="#000000" points="863.9785,-528.1386 872.7824,-522.2443 862.2244,-521.3619 863.9785,-528.1386"/>
</g>
<!-- core&#45;util&#45;is@1.0.2 -->
<g id="node64" class="node">
<title>core&#45;util&#45;is@1.0.2</title>
<path fill="none" stroke="#000000" d="M946.9611,-560.3011C946.9611,-560.3011 873.1202,-560.3011 873.1202,-560.3011 869.8866,-560.3011 866.6529,-557.0674 866.6529,-553.8337 866.6529,-553.8337 866.6529,-547.3663 866.6529,-547.3663 866.6529,-544.1326 869.8866,-540.8989 873.1202,-540.8989 873.1202,-540.8989 946.9611,-540.8989 946.9611,-540.8989 950.1947,-540.8989 953.4284,-544.1326 953.4284,-547.3663 953.4284,-547.3663 953.4284,-553.8337 953.4284,-553.8337 953.4284,-557.0674 950.1947,-560.3011 946.9611,-560.3011"/>
<text text-anchor="middle" x="910.0407" y="-547.3" font-family="Roboto Condensed, sans-serif" font-size="11.00" fill="#000000">core&#45;util&#45;is@1.0.2</text>
</g>
<!-- verror@1.10.0&#45;&gt;core&#45;util&#45;is@1.0.2 -->
<g id="edge79" class="edge">
<title>verror@1.10.0&#45;&gt;core&#45;util&#45;is@1.0.2</title>
<path fill="none" stroke="#000000" d="M798.7741,-550.6C816.1092,-550.6 837.3243,-550.6 856.5636,-550.6"/>
<polygon fill="#000000" stroke="#000000" points="856.7114,-554.1001 866.7114,-550.6 856.7113,-547.1001 856.7114,-554.1001"/>
</g>
<!-- asn1@0.2.4&#45;&gt;safer&#45;buffer@2.1.2 -->
<g id="edge69" class="edge">
<title>asn1@0.2.4&#45;&gt;safer&#45;buffer@2.1.2</title>
<path fill="none" stroke="#000000" d="M792.5921,-856.3993C810.3532,-858.698 833.5742,-861.7034 854.6753,-864.4344"/>
<polygon fill="#000000" stroke="#000000" points="854.4639,-867.9361 864.8305,-865.7487 855.3625,-860.994 854.4639,-867.9361"/>
</g>
<!-- dashdash@2.0.0&#45;&gt;assert&#45;plus@1.0.0 -->
<g id="edge65" class="edge">
<title>dashdash@2.0.0&#45;&gt;assert&#45;plus@1.0.0</title>
<path fill="none" stroke="#000000" d="M790.529,-692.8998C802.3954,-688.6163 816.4363,-683.4589 829.0267,-678.6 845.1822,-672.3653 863.0181,-665.1379 877.8326,-659.0389"/>
<polygon fill="#000000" stroke="#000000" points="879.1785,-662.2698 887.0835,-655.2157 876.5048,-655.8005 879.1785,-662.2698"/>
</g>
<!-- bcrypt&#45;pbkdf@1.0.2&#45;&gt;tweetnacl@1.0.3 -->
<g id="edge67" class="edge">
<title>bcrypt&#45;pbkdf@1.0.2&#45;&gt;tweetnacl@1.0.3</title>
<path fill="none" stroke="#000000" d="M810.9,-960.4312C826.4213,-958.4224 843.7006,-956.186 859.4299,-954.1503"/>
<polygon fill="#000000" stroke="#000000" points="860.0404,-957.6005 869.5084,-952.8459 859.1419,-950.6584 860.0404,-957.6005"/>
</g>
<!-- uri&#45;js@4.4.1&#45;&gt;punycode@2.1.1 -->
<g id="edge77" class="edge">
<title>uri&#45;js@4.4.1&#45;&gt;punycode@2.1.1</title>
<path fill="none" stroke="#000000" d="M794.2205,-51.8574C805.6313,-54.6076 818.364,-58.6781 829.0267,-64.6 855.7093,-79.4191 880.5436,-104.822 895.5047,-121.9077"/>
<polygon fill="#000000" stroke="#000000" points="893.2363,-124.6422 902.3859,-129.9842 898.5647,-120.1024 893.2363,-124.6422"/>
</g>
</g>
</svg>
